<?xml version="1.0" encoding="utf-8" standalone="no"?>
<!DOCTYPE svg PUBLIC "-//W3C//DTD SVG 1.1//EN"
  "http://www.w3.org/Graphics/SVG/1.1/DTD/svg11.dtd">
<svg xmlns:xlink="http://www.w3.org/1999/xlink" width="1248.449412pt" height="490.23475pt" viewBox="0 0 1248.449412 490.23475" xmlns="http://www.w3.org/2000/svg" version="1.1">
 <metadata>
  <rdf:RDF xmlns:dc="http://purl.org/dc/elements/1.1/" xmlns:cc="http://creativecommons.org/ns#" xmlns:rdf="http://www.w3.org/1999/02/22-rdf-syntax-ns#">
   <cc:Work>
    <dc:type rdf:resource="http://purl.org/dc/dcmitype/StillImage"/>
    <dc:date>2025-05-29T11:53:52.182819</dc:date>
    <dc:format>image/svg+xml</dc:format>
    <dc:creator>
     <cc:Agent>
      <dc:title>Matplotlib v3.10.3, https://matplotlib.org/</dc:title>
     </cc:Agent>
    </dc:creator>
   </cc:Work>
  </rdf:RDF>
 </metadata>
 <defs>
  <style type="text/css">*{stroke-linejoin: round; stroke-linecap: butt}</style>
 </defs>
 <g id="figure_1">
  <g id="patch_1">
   <path d="M 0 490.23475 
L 1248.449412 490.23475 
L 1248.449412 0 
L 0 0 
z
" style="fill: #ffffff"/>
  </g>
  <g id="axes_1">
   <g id="patch_2">
    <path d="M 123.888594 293.178923 
C 124.229383 295.111635 124.602219 297.03856 125.006948 298.9589 
C 125.411677 300.879241 125.848242 302.792734 126.316465 304.698588 
L 229.687406 279.302844 
C 229.500117 278.540502 229.325491 277.775105 229.1636 277.006968 
C 229.001708 276.238832 228.852574 275.468062 228.716258 274.694977 
z
" style="fill: #db5f57"/>
   </g>
   <g id="patch_3">
    <path d="M 126.709028 305.86802 
C 129.520607 317.312294 133.465524 328.448005 138.485248 339.110028 
C 143.504972 349.772051 149.574591 359.907425 156.604106 369.365877 
L 242.038006 305.871429 
C 239.2262 302.088048 236.798352 298.033899 234.790463 293.769089 
C 232.782573 289.50428 231.204607 285.049996 230.079975 280.472286 
z
" style="fill: #dba157"/>
   </g>
   <g id="patch_4">
    <path d="M 157.86004 371.055777 
C 164.889556 380.514229 172.844061 389.248772 181.60559 397.129892 
C 190.367119 405.011011 199.892168 411.999562 210.039485 417.991914 
L 264.165718 326.335784 
C 260.106791 323.938843 256.296772 321.143423 252.79216 317.990975 
C 249.287549 314.838527 246.105746 311.34471 243.29394 307.561329 
z
" style="fill: #d3db57"/>
   </g>
   <g id="patch_5">
    <path d="M 212.303632 419.197209 
C 226.973976 427.860576 242.816088 434.365635 259.341303 438.511729 
C 275.866518 442.657822 292.903141 444.40188 309.925662 443.69011 
L 305.478678 337.33824 
C 298.669669 337.622948 291.85502 336.925324 285.244934 335.266887 
C 278.634848 333.60845 272.298003 331.006426 266.429865 327.541079 
z
" style="fill: #91db57"/>
   </g>
   <g id="patch_6">
    <path d="M 312.43338 443.710144 
C 323.552561 443.245211 334.603367 441.735026 345.4396 439.199596 
C 356.275833 436.664165 366.849486 433.114697 377.020686 428.598163 
L 333.821317 331.313481 
C 329.752838 333.120095 325.523376 334.539882 321.188883 335.554054 
C 316.85439 336.568226 312.434067 337.1723 307.986395 337.358274 
z
" style="fill: #57db5f"/>
   </g>
   <g id="patch_7">
    <path d="M 378.839388 427.790566 
C 389.010588 423.274032 398.734265 417.81044 407.881799 411.472063 
C 417.029334 405.133687 425.560194 397.948602 433.36152 390.011872 
L 357.448872 315.394406 
C 354.328342 318.569098 350.915998 321.443132 347.256984 323.978483 
C 343.597971 326.513833 339.7085 328.69927 335.64002 330.505884 
z
" style="fill: #57dba1"/>
   </g>
   <g id="patch_8">
    <path d="M 434.287226 389.19652 
C 436.121546 387.33036 437.914352 385.423838 439.664331 383.478361 
C 441.41431 381.532883 443.121041 379.548946 444.783253 377.527967 
L 362.57299 309.911633 
C 361.908105 310.720024 361.225413 311.513599 360.525421 312.29179 
C 359.825429 313.069981 359.108307 313.83259 358.374579 314.579054 
z
" style="fill: #57d3db"/>
   </g>
   <g id="patch_9">
    <path d="M 445.909054 375.547218 
C 460.498155 357.809279 471.504934 337.40594 478.316903 315.472558 
C 485.128872 293.539173 487.6173 270.490255 485.643726 247.608357 
L 379.59266 256.755339 
C 380.382089 265.908098 379.386718 275.127665 376.66193 283.901019 
C 373.937143 292.674372 369.534431 300.835708 363.698791 307.930883 
z
" style="fill: #5791db"/>
   </g>
   <g id="patch_10">
    <path d="M 485.127063 243.295351 
C 482.812498 216.460075 474.416662 190.500983 460.578223 167.392823 
C 446.739784 144.284663 427.818778 124.628624 405.254541 109.91997 
L 347.126988 199.09218 
C 356.152683 204.975642 363.721085 212.838058 369.256461 222.081322 
C 374.791836 231.324586 378.150171 241.708223 379.075997 252.442333 
z
" style="fill: #5f57db"/>
   </g>
   <g id="patch_11">
    <path d="M 400.819271 107.333767 
C 373.245335 89.359502 341.205751 79.408773 308.300714 78.599719 
C 275.395675 77.790666 242.905682 86.154811 214.481727 102.752243 
L 268.1567 194.673368 
C 279.526282 188.034395 292.522279 184.688737 305.684295 185.012358 
C 318.84631 185.33598 331.662144 189.316272 342.691718 196.505977 
z
" style="fill: #a157db"/>
   </g>
   <g id="patch_12">
    <path d="M 209.521809 105.835464 
C 178.214549 124.116532 153.25075 151.562234 138.010027 184.456951 
C 122.769304 217.351672 117.971916 254.140832 124.267328 289.843914 
L 229.09499 271.359969 
C 226.576825 257.078736 228.49578 242.363072 234.59207 229.205184 
C 240.688359 216.047297 250.673878 205.069016 263.196782 197.756589 
z
" style="fill: #db57d3"/>
   </g>
   <g id="matplotlib.axis_1"/>
   <g id="matplotlib.axis_2"/>
   <g id="text_1">
    <!-- Dentistry &amp; -->
    <g transform="translate(50.62251 299.778042) scale(0.1 -0.1)">
     <defs>
      <path id="DejaVuSans-44" d="M 1259 4147 
L 1259 519 
L 2022 519 
Q 2988 519 3436 956 
Q 3884 1394 3884 2338 
Q 3884 3275 3436 3711 
Q 2988 4147 2022 4147 
L 1259 4147 
z
M 628 4666 
L 1925 4666 
Q 3281 4666 3915 4102 
Q 4550 3538 4550 2338 
Q 4550 1131 3912 565 
Q 3275 0 1925 0 
L 628 0 
L 628 4666 
z
" transform="scale(0.015625)"/>
      <path id="DejaVuSans-65" d="M 3597 1894 
L 3597 1613 
L 953 1613 
Q 991 1019 1311 708 
Q 1631 397 2203 397 
Q 2534 397 2845 478 
Q 3156 559 3463 722 
L 3463 178 
Q 3153 47 2828 -22 
Q 2503 -91 2169 -91 
Q 1331 -91 842 396 
Q 353 884 353 1716 
Q 353 2575 817 3079 
Q 1281 3584 2069 3584 
Q 2775 3584 3186 3129 
Q 3597 2675 3597 1894 
z
M 3022 2063 
Q 3016 2534 2758 2815 
Q 2500 3097 2075 3097 
Q 1594 3097 1305 2825 
Q 1016 2553 972 2059 
L 3022 2063 
z
" transform="scale(0.015625)"/>
      <path id="DejaVuSans-6e" d="M 3513 2113 
L 3513 0 
L 2938 0 
L 2938 2094 
Q 2938 2591 2744 2837 
Q 2550 3084 2163 3084 
Q 1697 3084 1428 2787 
Q 1159 2491 1159 1978 
L 1159 0 
L 581 0 
L 581 3500 
L 1159 3500 
L 1159 2956 
Q 1366 3272 1645 3428 
Q 1925 3584 2291 3584 
Q 2894 3584 3203 3211 
Q 3513 2838 3513 2113 
z
" transform="scale(0.015625)"/>
      <path id="DejaVuSans-74" d="M 1172 4494 
L 1172 3500 
L 2356 3500 
L 2356 3053 
L 1172 3053 
L 1172 1153 
Q 1172 725 1289 603 
Q 1406 481 1766 481 
L 2356 481 
L 2356 0 
L 1766 0 
Q 1100 0 847 248 
Q 594 497 594 1153 
L 594 3053 
L 172 3053 
L 172 3500 
L 594 3500 
L 594 4494 
L 1172 4494 
z
" transform="scale(0.015625)"/>
      <path id="DejaVuSans-69" d="M 603 3500 
L 1178 3500 
L 1178 0 
L 603 0 
L 603 3500 
z
M 603 4863 
L 1178 4863 
L 1178 4134 
L 603 4134 
L 603 4863 
z
" transform="scale(0.015625)"/>
      <path id="DejaVuSans-73" d="M 2834 3397 
L 2834 2853 
Q 2591 2978 2328 3040 
Q 2066 3103 1784 3103 
Q 1356 3103 1142 2972 
Q 928 2841 928 2578 
Q 928 2378 1081 2264 
Q 1234 2150 1697 2047 
L 1894 2003 
Q 2506 1872 2764 1633 
Q 3022 1394 3022 966 
Q 3022 478 2636 193 
Q 2250 -91 1575 -91 
Q 1294 -91 989 -36 
Q 684 19 347 128 
L 347 722 
Q 666 556 975 473 
Q 1284 391 1588 391 
Q 1994 391 2212 530 
Q 2431 669 2431 922 
Q 2431 1156 2273 1281 
Q 2116 1406 1581 1522 
L 1381 1569 
Q 847 1681 609 1914 
Q 372 2147 372 2553 
Q 372 3047 722 3315 
Q 1072 3584 1716 3584 
Q 2034 3584 2315 3537 
Q 2597 3491 2834 3397 
z
" transform="scale(0.015625)"/>
      <path id="DejaVuSans-72" d="M 2631 2963 
Q 2534 3019 2420 3045 
Q 2306 3072 2169 3072 
Q 1681 3072 1420 2755 
Q 1159 2438 1159 1844 
L 1159 0 
L 581 0 
L 581 3500 
L 1159 3500 
L 1159 2956 
Q 1341 3275 1631 3429 
Q 1922 3584 2338 3584 
Q 2397 3584 2469 3576 
Q 2541 3569 2628 3553 
L 2631 2963 
z
" transform="scale(0.015625)"/>
      <path id="DejaVuSans-79" d="M 2059 -325 
Q 1816 -950 1584 -1140 
Q 1353 -1331 966 -1331 
L 506 -1331 
L 506 -850 
L 844 -850 
Q 1081 -850 1212 -737 
Q 1344 -625 1503 -206 
L 1606 56 
L 191 3500 
L 800 3500 
L 1894 763 
L 2988 3500 
L 3597 3500 
L 2059 -325 
z
" transform="scale(0.015625)"/>
      <path id="DejaVuSans-20" transform="scale(0.015625)"/>
      <path id="DejaVuSans-26" d="M 1556 2509 
Q 1272 2256 1139 2004 
Q 1006 1753 1006 1478 
Q 1006 1022 1337 719 
Q 1669 416 2169 416 
Q 2466 416 2725 514 
Q 2984 613 3213 813 
L 1556 2509 
z
M 1997 2859 
L 3584 1234 
Q 3769 1513 3872 1830 
Q 3975 2147 3994 2503 
L 4575 2503 
Q 4538 2091 4375 1687 
Q 4213 1284 3922 891 
L 4794 0 
L 4006 0 
L 3559 459 
Q 3234 181 2878 45 
Q 2522 -91 2113 -91 
Q 1359 -91 881 339 
Q 403 769 403 1441 
Q 403 1841 612 2192 
Q 822 2544 1241 2853 
Q 1091 3050 1012 3245 
Q 934 3441 934 3628 
Q 934 4134 1281 4442 
Q 1628 4750 2203 4750 
Q 2463 4750 2720 4694 
Q 2978 4638 3244 4525 
L 3244 3956 
Q 2972 4103 2725 4179 
Q 2478 4256 2266 4256 
Q 1938 4256 1733 4082 
Q 1528 3909 1528 3634 
Q 1528 3475 1620 3314 
Q 1713 3153 1997 2859 
z
" transform="scale(0.015625)"/>
     </defs>
     <use xlink:href="#DejaVuSans-44"/>
     <use xlink:href="#DejaVuSans-65" transform="translate(77.001953 0)"/>
     <use xlink:href="#DejaVuSans-6e" transform="translate(138.525391 0)"/>
     <use xlink:href="#DejaVuSans-74" transform="translate(201.904297 0)"/>
     <use xlink:href="#DejaVuSans-69" transform="translate(241.113281 0)"/>
     <use xlink:href="#DejaVuSans-73" transform="translate(268.896484 0)"/>
     <use xlink:href="#DejaVuSans-74" transform="translate(320.996094 0)"/>
     <use xlink:href="#DejaVuSans-72" transform="translate(360.205078 0)"/>
     <use xlink:href="#DejaVuSans-79" transform="translate(401.318359 0)"/>
     <use xlink:href="#DejaVuSans-20" transform="translate(460.498047 0)"/>
     <use xlink:href="#DejaVuSans-26" transform="translate(492.285156 0)"/>
    </g>
    <!-- Oral Health -->
    <g transform="translate(50.742822 310.975855) scale(0.1 -0.1)">
     <defs>
      <path id="DejaVuSans-4f" d="M 2522 4238 
Q 1834 4238 1429 3725 
Q 1025 3213 1025 2328 
Q 1025 1447 1429 934 
Q 1834 422 2522 422 
Q 3209 422 3611 934 
Q 4013 1447 4013 2328 
Q 4013 3213 3611 3725 
Q 3209 4238 2522 4238 
z
M 2522 4750 
Q 3503 4750 4090 4092 
Q 4678 3434 4678 2328 
Q 4678 1225 4090 567 
Q 3503 -91 2522 -91 
Q 1538 -91 948 565 
Q 359 1222 359 2328 
Q 359 3434 948 4092 
Q 1538 4750 2522 4750 
z
" transform="scale(0.015625)"/>
      <path id="DejaVuSans-61" d="M 2194 1759 
Q 1497 1759 1228 1600 
Q 959 1441 959 1056 
Q 959 750 1161 570 
Q 1363 391 1709 391 
Q 2188 391 2477 730 
Q 2766 1069 2766 1631 
L 2766 1759 
L 2194 1759 
z
M 3341 1997 
L 3341 0 
L 2766 0 
L 2766 531 
Q 2569 213 2275 61 
Q 1981 -91 1556 -91 
Q 1019 -91 701 211 
Q 384 513 384 1019 
Q 384 1609 779 1909 
Q 1175 2209 1959 2209 
L 2766 2209 
L 2766 2266 
Q 2766 2663 2505 2880 
Q 2244 3097 1772 3097 
Q 1472 3097 1187 3025 
Q 903 2953 641 2809 
L 641 3341 
Q 956 3463 1253 3523 
Q 1550 3584 1831 3584 
Q 2591 3584 2966 3190 
Q 3341 2797 3341 1997 
z
" transform="scale(0.015625)"/>
      <path id="DejaVuSans-6c" d="M 603 4863 
L 1178 4863 
L 1178 0 
L 603 0 
L 603 4863 
z
" transform="scale(0.015625)"/>
      <path id="DejaVuSans-48" d="M 628 4666 
L 1259 4666 
L 1259 2753 
L 3553 2753 
L 3553 4666 
L 4184 4666 
L 4184 0 
L 3553 0 
L 3553 2222 
L 1259 2222 
L 1259 0 
L 628 0 
L 628 4666 
z
" transform="scale(0.015625)"/>
      <path id="DejaVuSans-68" d="M 3513 2113 
L 3513 0 
L 2938 0 
L 2938 2094 
Q 2938 2591 2744 2837 
Q 2550 3084 2163 3084 
Q 1697 3084 1428 2787 
Q 1159 2491 1159 1978 
L 1159 0 
L 581 0 
L 581 4863 
L 1159 4863 
L 1159 2956 
Q 1366 3272 1645 3428 
Q 1925 3584 2291 3584 
Q 2894 3584 3203 3211 
Q 3513 2838 3513 2113 
z
" transform="scale(0.015625)"/>
     </defs>
     <use xlink:href="#DejaVuSans-4f"/>
     <use xlink:href="#DejaVuSans-72" transform="translate(78.710938 0)"/>
     <use xlink:href="#DejaVuSans-61" transform="translate(119.824219 0)"/>
     <use xlink:href="#DejaVuSans-6c" transform="translate(181.103516 0)"/>
     <use xlink:href="#DejaVuSans-20" transform="translate(208.886719 0)"/>
     <use xlink:href="#DejaVuSans-48" transform="translate(240.673828 0)"/>
     <use xlink:href="#DejaVuSans-65" transform="translate(315.869141 0)"/>
     <use xlink:href="#DejaVuSans-61" transform="translate(377.392578 0)"/>
     <use xlink:href="#DejaVuSans-6c" transform="translate(438.671875 0)"/>
     <use xlink:href="#DejaVuSans-74" transform="translate(466.455078 0)"/>
     <use xlink:href="#DejaVuSans-68" transform="translate(505.664062 0)"/>
    </g>
   </g>
   <g id="text_2">
    <!-- 1.1% -->
    <g transform="translate(164.382932 290.742321) scale(0.1 -0.1)">
     <defs>
      <path id="DejaVuSans-31" d="M 794 531 
L 1825 531 
L 1825 4091 
L 703 3866 
L 703 4441 
L 1819 4666 
L 2450 4666 
L 2450 531 
L 3481 531 
L 3481 0 
L 794 0 
L 794 531 
z
" transform="scale(0.015625)"/>
      <path id="DejaVuSans-2e" d="M 684 794 
L 1344 794 
L 1344 0 
L 684 0 
L 684 794 
z
" transform="scale(0.015625)"/>
      <path id="DejaVuSans-25" d="M 4653 2053 
Q 4381 2053 4226 1822 
Q 4072 1591 4072 1178 
Q 4072 772 4226 539 
Q 4381 306 4653 306 
Q 4919 306 5073 539 
Q 5228 772 5228 1178 
Q 5228 1588 5073 1820 
Q 4919 2053 4653 2053 
z
M 4653 2450 
Q 5147 2450 5437 2106 
Q 5728 1763 5728 1178 
Q 5728 594 5436 251 
Q 5144 -91 4653 -91 
Q 4153 -91 3862 251 
Q 3572 594 3572 1178 
Q 3572 1766 3864 2108 
Q 4156 2450 4653 2450 
z
M 1428 4353 
Q 1159 4353 1004 4120 
Q 850 3888 850 3481 
Q 850 3069 1003 2837 
Q 1156 2606 1428 2606 
Q 1700 2606 1854 2837 
Q 2009 3069 2009 3481 
Q 2009 3884 1853 4118 
Q 1697 4353 1428 4353 
z
M 4250 4750 
L 4750 4750 
L 1831 -91 
L 1331 -91 
L 4250 4750 
z
M 1428 4750 
Q 1922 4750 2215 4408 
Q 2509 4066 2509 3481 
Q 2509 2891 2217 2550 
Q 1925 2209 1428 2209 
Q 931 2209 642 2551 
Q 353 2894 353 3481 
Q 353 4063 643 4406 
Q 934 4750 1428 4750 
z
" transform="scale(0.015625)"/>
     </defs>
     <use xlink:href="#DejaVuSans-31"/>
     <use xlink:href="#DejaVuSans-2e" transform="translate(63.623047 0)"/>
     <use xlink:href="#DejaVuSans-31" transform="translate(95.410156 0)"/>
     <use xlink:href="#DejaVuSans-25" transform="translate(159.033203 0)"/>
    </g>
   </g>
   <g id="text_3">
    <!-- Emergency Medicine &amp; -->
    <g transform="translate(7.2 343.827318) scale(0.1 -0.1)">
     <defs>
      <path id="DejaVuSans-45" d="M 628 4666 
L 3578 4666 
L 3578 4134 
L 1259 4134 
L 1259 2753 
L 3481 2753 
L 3481 2222 
L 1259 2222 
L 1259 531 
L 3634 531 
L 3634 0 
L 628 0 
L 628 4666 
z
" transform="scale(0.015625)"/>
      <path id="DejaVuSans-6d" d="M 3328 2828 
Q 3544 3216 3844 3400 
Q 4144 3584 4550 3584 
Q 5097 3584 5394 3201 
Q 5691 2819 5691 2113 
L 5691 0 
L 5113 0 
L 5113 2094 
Q 5113 2597 4934 2840 
Q 4756 3084 4391 3084 
Q 3944 3084 3684 2787 
Q 3425 2491 3425 1978 
L 3425 0 
L 2847 0 
L 2847 2094 
Q 2847 2600 2669 2842 
Q 2491 3084 2119 3084 
Q 1678 3084 1418 2786 
Q 1159 2488 1159 1978 
L 1159 0 
L 581 0 
L 581 3500 
L 1159 3500 
L 1159 2956 
Q 1356 3278 1631 3431 
Q 1906 3584 2284 3584 
Q 2666 3584 2933 3390 
Q 3200 3197 3328 2828 
z
" transform="scale(0.015625)"/>
      <path id="DejaVuSans-67" d="M 2906 1791 
Q 2906 2416 2648 2759 
Q 2391 3103 1925 3103 
Q 1463 3103 1205 2759 
Q 947 2416 947 1791 
Q 947 1169 1205 825 
Q 1463 481 1925 481 
Q 2391 481 2648 825 
Q 2906 1169 2906 1791 
z
M 3481 434 
Q 3481 -459 3084 -895 
Q 2688 -1331 1869 -1331 
Q 1566 -1331 1297 -1286 
Q 1028 -1241 775 -1147 
L 775 -588 
Q 1028 -725 1275 -790 
Q 1522 -856 1778 -856 
Q 2344 -856 2625 -561 
Q 2906 -266 2906 331 
L 2906 616 
Q 2728 306 2450 153 
Q 2172 0 1784 0 
Q 1141 0 747 490 
Q 353 981 353 1791 
Q 353 2603 747 3093 
Q 1141 3584 1784 3584 
Q 2172 3584 2450 3431 
Q 2728 3278 2906 2969 
L 2906 3500 
L 3481 3500 
L 3481 434 
z
" transform="scale(0.015625)"/>
      <path id="DejaVuSans-63" d="M 3122 3366 
L 3122 2828 
Q 2878 2963 2633 3030 
Q 2388 3097 2138 3097 
Q 1578 3097 1268 2742 
Q 959 2388 959 1747 
Q 959 1106 1268 751 
Q 1578 397 2138 397 
Q 2388 397 2633 464 
Q 2878 531 3122 666 
L 3122 134 
Q 2881 22 2623 -34 
Q 2366 -91 2075 -91 
Q 1284 -91 818 406 
Q 353 903 353 1747 
Q 353 2603 823 3093 
Q 1294 3584 2113 3584 
Q 2378 3584 2631 3529 
Q 2884 3475 3122 3366 
z
" transform="scale(0.015625)"/>
      <path id="DejaVuSans-4d" d="M 628 4666 
L 1569 4666 
L 2759 1491 
L 3956 4666 
L 4897 4666 
L 4897 0 
L 4281 0 
L 4281 4097 
L 3078 897 
L 2444 897 
L 1241 4097 
L 1241 0 
L 628 0 
L 628 4666 
z
" transform="scale(0.015625)"/>
      <path id="DejaVuSans-64" d="M 2906 2969 
L 2906 4863 
L 3481 4863 
L 3481 0 
L 2906 0 
L 2906 525 
Q 2725 213 2448 61 
Q 2172 -91 1784 -91 
Q 1150 -91 751 415 
Q 353 922 353 1747 
Q 353 2572 751 3078 
Q 1150 3584 1784 3584 
Q 2172 3584 2448 3432 
Q 2725 3281 2906 2969 
z
M 947 1747 
Q 947 1113 1208 752 
Q 1469 391 1925 391 
Q 2381 391 2643 752 
Q 2906 1113 2906 1747 
Q 2906 2381 2643 2742 
Q 2381 3103 1925 3103 
Q 1469 3103 1208 2742 
Q 947 2381 947 1747 
z
" transform="scale(0.015625)"/>
     </defs>
     <use xlink:href="#DejaVuSans-45"/>
     <use xlink:href="#DejaVuSans-6d" transform="translate(63.183594 0)"/>
     <use xlink:href="#DejaVuSans-65" transform="translate(160.595703 0)"/>
     <use xlink:href="#DejaVuSans-72" transform="translate(222.119141 0)"/>
     <use xlink:href="#DejaVuSans-67" transform="translate(261.482422 0)"/>
     <use xlink:href="#DejaVuSans-65" transform="translate(324.958984 0)"/>
     <use xlink:href="#DejaVuSans-6e" transform="translate(386.482422 0)"/>
     <use xlink:href="#DejaVuSans-63" transform="translate(449.861328 0)"/>
     <use xlink:href="#DejaVuSans-79" transform="translate(504.841797 0)"/>
     <use xlink:href="#DejaVuSans-20" transform="translate(564.021484 0)"/>
     <use xlink:href="#DejaVuSans-4d" transform="translate(595.808594 0)"/>
     <use xlink:href="#DejaVuSans-65" transform="translate(682.087891 0)"/>
     <use xlink:href="#DejaVuSans-64" transform="translate(743.611328 0)"/>
     <use xlink:href="#DejaVuSans-69" transform="translate(807.087891 0)"/>
     <use xlink:href="#DejaVuSans-63" transform="translate(834.871094 0)"/>
     <use xlink:href="#DejaVuSans-69" transform="translate(889.851562 0)"/>
     <use xlink:href="#DejaVuSans-6e" transform="translate(917.634766 0)"/>
     <use xlink:href="#DejaVuSans-65" transform="translate(981.013672 0)"/>
     <use xlink:href="#DejaVuSans-20" transform="translate(1042.537109 0)"/>
     <use xlink:href="#DejaVuSans-26" transform="translate(1074.324219 0)"/>
    </g>
    <!-- Critical Care -->
    <g transform="translate(61.13125 355.025131) scale(0.1 -0.1)">
     <defs>
      <path id="DejaVuSans-43" d="M 4122 4306 
L 4122 3641 
Q 3803 3938 3442 4084 
Q 3081 4231 2675 4231 
Q 1875 4231 1450 3742 
Q 1025 3253 1025 2328 
Q 1025 1406 1450 917 
Q 1875 428 2675 428 
Q 3081 428 3442 575 
Q 3803 722 4122 1019 
L 4122 359 
Q 3791 134 3420 21 
Q 3050 -91 2638 -91 
Q 1578 -91 968 557 
Q 359 1206 359 2328 
Q 359 3453 968 4101 
Q 1578 4750 2638 4750 
Q 3056 4750 3426 4639 
Q 3797 4528 4122 4306 
z
" transform="scale(0.015625)"/>
     </defs>
     <use xlink:href="#DejaVuSans-43"/>
     <use xlink:href="#DejaVuSans-72" transform="translate(69.824219 0)"/>
     <use xlink:href="#DejaVuSans-69" transform="translate(110.9375 0)"/>
     <use xlink:href="#DejaVuSans-74" transform="translate(138.720703 0)"/>
     <use xlink:href="#DejaVuSans-69" transform="translate(177.929688 0)"/>
     <use xlink:href="#DejaVuSans-63" transform="translate(205.712891 0)"/>
     <use xlink:href="#DejaVuSans-61" transform="translate(260.693359 0)"/>
     <use xlink:href="#DejaVuSans-6c" transform="translate(321.972656 0)"/>
     <use xlink:href="#DejaVuSans-20" transform="translate(349.755859 0)"/>
     <use xlink:href="#DejaVuSans-43" transform="translate(381.542969 0)"/>
     <use xlink:href="#DejaVuSans-61" transform="translate(451.367188 0)"/>
     <use xlink:href="#DejaVuSans-72" transform="translate(512.646484 0)"/>
     <use xlink:href="#DejaVuSans-65" transform="translate(551.509766 0)"/>
    </g>
   </g>
   <g id="text_4">
    <!-- 6.3% -->
    <g transform="translate(173.935509 319.198933) scale(0.1 -0.1)">
     <defs>
      <path id="DejaVuSans-36" d="M 2113 2584 
Q 1688 2584 1439 2293 
Q 1191 2003 1191 1497 
Q 1191 994 1439 701 
Q 1688 409 2113 409 
Q 2538 409 2786 701 
Q 3034 994 3034 1497 
Q 3034 2003 2786 2293 
Q 2538 2584 2113 2584 
z
M 3366 4563 
L 3366 3988 
Q 3128 4100 2886 4159 
Q 2644 4219 2406 4219 
Q 1781 4219 1451 3797 
Q 1122 3375 1075 2522 
Q 1259 2794 1537 2939 
Q 1816 3084 2150 3084 
Q 2853 3084 3261 2657 
Q 3669 2231 3669 1497 
Q 3669 778 3244 343 
Q 2819 -91 2113 -91 
Q 1303 -91 875 529 
Q 447 1150 447 2328 
Q 447 3434 972 4092 
Q 1497 4750 2381 4750 
Q 2619 4750 2861 4703 
Q 3103 4656 3366 4563 
z
" transform="scale(0.015625)"/>
      <path id="DejaVuSans-33" d="M 2597 2516 
Q 3050 2419 3304 2112 
Q 3559 1806 3559 1356 
Q 3559 666 3084 287 
Q 2609 -91 1734 -91 
Q 1441 -91 1130 -33 
Q 819 25 488 141 
L 488 750 
Q 750 597 1062 519 
Q 1375 441 1716 441 
Q 2309 441 2620 675 
Q 2931 909 2931 1356 
Q 2931 1769 2642 2001 
Q 2353 2234 1838 2234 
L 1294 2234 
L 1294 2753 
L 1863 2753 
Q 2328 2753 2575 2939 
Q 2822 3125 2822 3475 
Q 2822 3834 2567 4026 
Q 2313 4219 1838 4219 
Q 1578 4219 1281 4162 
Q 984 4106 628 3988 
L 628 4550 
Q 988 4650 1302 4700 
Q 1616 4750 1894 4750 
Q 2613 4750 3031 4423 
Q 3450 4097 3450 3541 
Q 3450 3153 3228 2886 
Q 3006 2619 2597 2516 
z
" transform="scale(0.015625)"/>
     </defs>
     <use xlink:href="#DejaVuSans-36"/>
     <use xlink:href="#DejaVuSans-2e" transform="translate(63.623047 0)"/>
     <use xlink:href="#DejaVuSans-33" transform="translate(95.410156 0)"/>
     <use xlink:href="#DejaVuSans-25" transform="translate(159.033203 0)"/>
    </g>
   </g>
   <g id="text_5">
    <!-- Family Medicine &amp; -->
    <g transform="translate(78.728736 407.480242) scale(0.1 -0.1)">
     <defs>
      <path id="DejaVuSans-46" d="M 628 4666 
L 3309 4666 
L 3309 4134 
L 1259 4134 
L 1259 2759 
L 3109 2759 
L 3109 2228 
L 1259 2228 
L 1259 0 
L 628 0 
L 628 4666 
z
" transform="scale(0.015625)"/>
     </defs>
     <use xlink:href="#DejaVuSans-46"/>
     <use xlink:href="#DejaVuSans-61" transform="translate(48.394531 0)"/>
     <use xlink:href="#DejaVuSans-6d" transform="translate(109.673828 0)"/>
     <use xlink:href="#DejaVuSans-69" transform="translate(207.085938 0)"/>
     <use xlink:href="#DejaVuSans-6c" transform="translate(234.869141 0)"/>
     <use xlink:href="#DejaVuSans-79" transform="translate(262.652344 0)"/>
     <use xlink:href="#DejaVuSans-20" transform="translate(321.832031 0)"/>
     <use xlink:href="#DejaVuSans-4d" transform="translate(353.619141 0)"/>
     <use xlink:href="#DejaVuSans-65" transform="translate(439.898438 0)"/>
     <use xlink:href="#DejaVuSans-64" transform="translate(501.421875 0)"/>
     <use xlink:href="#DejaVuSans-69" transform="translate(564.898438 0)"/>
     <use xlink:href="#DejaVuSans-63" transform="translate(592.681641 0)"/>
     <use xlink:href="#DejaVuSans-69" transform="translate(647.662109 0)"/>
     <use xlink:href="#DejaVuSans-6e" transform="translate(675.445312 0)"/>
     <use xlink:href="#DejaVuSans-65" transform="translate(738.824219 0)"/>
     <use xlink:href="#DejaVuSans-20" transform="translate(800.347656 0)"/>
     <use xlink:href="#DejaVuSans-26" transform="translate(832.134766 0)"/>
    </g>
    <!-- Preventive Care -->
    <g transform="translate(90.339674 418.678054) scale(0.1 -0.1)">
     <defs>
      <path id="DejaVuSans-50" d="M 1259 4147 
L 1259 2394 
L 2053 2394 
Q 2494 2394 2734 2622 
Q 2975 2850 2975 3272 
Q 2975 3691 2734 3919 
Q 2494 4147 2053 4147 
L 1259 4147 
z
M 628 4666 
L 2053 4666 
Q 2838 4666 3239 4311 
Q 3641 3956 3641 3272 
Q 3641 2581 3239 2228 
Q 2838 1875 2053 1875 
L 1259 1875 
L 1259 0 
L 628 0 
L 628 4666 
z
" transform="scale(0.015625)"/>
      <path id="DejaVuSans-76" d="M 191 3500 
L 800 3500 
L 1894 563 
L 2988 3500 
L 3597 3500 
L 2284 0 
L 1503 0 
L 191 3500 
z
" transform="scale(0.015625)"/>
     </defs>
     <use xlink:href="#DejaVuSans-50"/>
     <use xlink:href="#DejaVuSans-72" transform="translate(58.552734 0)"/>
     <use xlink:href="#DejaVuSans-65" transform="translate(97.416016 0)"/>
     <use xlink:href="#DejaVuSans-76" transform="translate(158.939453 0)"/>
     <use xlink:href="#DejaVuSans-65" transform="translate(218.119141 0)"/>
     <use xlink:href="#DejaVuSans-6e" transform="translate(279.642578 0)"/>
     <use xlink:href="#DejaVuSans-74" transform="translate(343.021484 0)"/>
     <use xlink:href="#DejaVuSans-69" transform="translate(382.230469 0)"/>
     <use xlink:href="#DejaVuSans-76" transform="translate(410.013672 0)"/>
     <use xlink:href="#DejaVuSans-65" transform="translate(469.193359 0)"/>
     <use xlink:href="#DejaVuSans-20" transform="translate(530.716797 0)"/>
     <use xlink:href="#DejaVuSans-43" transform="translate(562.503906 0)"/>
     <use xlink:href="#DejaVuSans-61" transform="translate(632.328125 0)"/>
     <use xlink:href="#DejaVuSans-72" transform="translate(693.607422 0)"/>
     <use xlink:href="#DejaVuSans-65" transform="translate(732.470703 0)"/>
    </g>
   </g>
   <g id="text_6">
    <!-- 6.3% -->
    <g transform="translate(204.496579 360.319848) scale(0.1 -0.1)">
     <use xlink:href="#DejaVuSans-36"/>
     <use xlink:href="#DejaVuSans-2e" transform="translate(63.623047 0)"/>
     <use xlink:href="#DejaVuSans-33" transform="translate(95.410156 0)"/>
     <use xlink:href="#DejaVuSans-25" transform="translate(159.033203 0)"/>
    </g>
   </g>
   <g id="text_7">
    <!-- Internal Medicine &amp; -->
    <g transform="translate(157.653809 452.879694) scale(0.1 -0.1)">
     <defs>
      <path id="DejaVuSans-49" d="M 628 4666 
L 1259 4666 
L 1259 0 
L 628 0 
L 628 4666 
z
" transform="scale(0.015625)"/>
     </defs>
     <use xlink:href="#DejaVuSans-49"/>
     <use xlink:href="#DejaVuSans-6e" transform="translate(29.492188 0)"/>
     <use xlink:href="#DejaVuSans-74" transform="translate(92.871094 0)"/>
     <use xlink:href="#DejaVuSans-65" transform="translate(132.080078 0)"/>
     <use xlink:href="#DejaVuSans-72" transform="translate(193.603516 0)"/>
     <use xlink:href="#DejaVuSans-6e" transform="translate(232.966797 0)"/>
     <use xlink:href="#DejaVuSans-61" transform="translate(296.345703 0)"/>
     <use xlink:href="#DejaVuSans-6c" transform="translate(357.625 0)"/>
     <use xlink:href="#DejaVuSans-20" transform="translate(385.408203 0)"/>
     <use xlink:href="#DejaVuSans-4d" transform="translate(417.195312 0)"/>
     <use xlink:href="#DejaVuSans-65" transform="translate(503.474609 0)"/>
     <use xlink:href="#DejaVuSans-64" transform="translate(564.998047 0)"/>
     <use xlink:href="#DejaVuSans-69" transform="translate(628.474609 0)"/>
     <use xlink:href="#DejaVuSans-63" transform="translate(656.257812 0)"/>
     <use xlink:href="#DejaVuSans-69" transform="translate(711.238281 0)"/>
     <use xlink:href="#DejaVuSans-6e" transform="translate(739.021484 0)"/>
     <use xlink:href="#DejaVuSans-65" transform="translate(802.400391 0)"/>
     <use xlink:href="#DejaVuSans-20" transform="translate(863.923828 0)"/>
     <use xlink:href="#DejaVuSans-26" transform="translate(895.710938 0)"/>
    </g>
    <!-- Subspecialties -->
    <g transform="translate(183.035059 464.077507) scale(0.1 -0.1)">
     <defs>
      <path id="DejaVuSans-53" d="M 3425 4513 
L 3425 3897 
Q 3066 4069 2747 4153 
Q 2428 4238 2131 4238 
Q 1616 4238 1336 4038 
Q 1056 3838 1056 3469 
Q 1056 3159 1242 3001 
Q 1428 2844 1947 2747 
L 2328 2669 
Q 3034 2534 3370 2195 
Q 3706 1856 3706 1288 
Q 3706 609 3251 259 
Q 2797 -91 1919 -91 
Q 1588 -91 1214 -16 
Q 841 59 441 206 
L 441 856 
Q 825 641 1194 531 
Q 1563 422 1919 422 
Q 2459 422 2753 634 
Q 3047 847 3047 1241 
Q 3047 1584 2836 1778 
Q 2625 1972 2144 2069 
L 1759 2144 
Q 1053 2284 737 2584 
Q 422 2884 422 3419 
Q 422 4038 858 4394 
Q 1294 4750 2059 4750 
Q 2388 4750 2728 4690 
Q 3069 4631 3425 4513 
z
" transform="scale(0.015625)"/>
      <path id="DejaVuSans-75" d="M 544 1381 
L 544 3500 
L 1119 3500 
L 1119 1403 
Q 1119 906 1312 657 
Q 1506 409 1894 409 
Q 2359 409 2629 706 
Q 2900 1003 2900 1516 
L 2900 3500 
L 3475 3500 
L 3475 0 
L 2900 0 
L 2900 538 
Q 2691 219 2414 64 
Q 2138 -91 1772 -91 
Q 1169 -91 856 284 
Q 544 659 544 1381 
z
M 1991 3584 
L 1991 3584 
z
" transform="scale(0.015625)"/>
      <path id="DejaVuSans-62" d="M 3116 1747 
Q 3116 2381 2855 2742 
Q 2594 3103 2138 3103 
Q 1681 3103 1420 2742 
Q 1159 2381 1159 1747 
Q 1159 1113 1420 752 
Q 1681 391 2138 391 
Q 2594 391 2855 752 
Q 3116 1113 3116 1747 
z
M 1159 2969 
Q 1341 3281 1617 3432 
Q 1894 3584 2278 3584 
Q 2916 3584 3314 3078 
Q 3713 2572 3713 1747 
Q 3713 922 3314 415 
Q 2916 -91 2278 -91 
Q 1894 -91 1617 61 
Q 1341 213 1159 525 
L 1159 0 
L 581 0 
L 581 4863 
L 1159 4863 
L 1159 2969 
z
" transform="scale(0.015625)"/>
      <path id="DejaVuSans-70" d="M 1159 525 
L 1159 -1331 
L 581 -1331 
L 581 3500 
L 1159 3500 
L 1159 2969 
Q 1341 3281 1617 3432 
Q 1894 3584 2278 3584 
Q 2916 3584 3314 3078 
Q 3713 2572 3713 1747 
Q 3713 922 3314 415 
Q 2916 -91 2278 -91 
Q 1894 -91 1617 61 
Q 1341 213 1159 525 
z
M 3116 1747 
Q 3116 2381 2855 2742 
Q 2594 3103 2138 3103 
Q 1681 3103 1420 2742 
Q 1159 2381 1159 1747 
Q 1159 1113 1420 752 
Q 1681 391 2138 391 
Q 2594 391 2855 752 
Q 3116 1113 3116 1747 
z
" transform="scale(0.015625)"/>
     </defs>
     <use xlink:href="#DejaVuSans-53"/>
     <use xlink:href="#DejaVuSans-75" transform="translate(63.476562 0)"/>
     <use xlink:href="#DejaVuSans-62" transform="translate(126.855469 0)"/>
     <use xlink:href="#DejaVuSans-73" transform="translate(190.332031 0)"/>
     <use xlink:href="#DejaVuSans-70" transform="translate(242.431641 0)"/>
     <use xlink:href="#DejaVuSans-65" transform="translate(305.908203 0)"/>
     <use xlink:href="#DejaVuSans-63" transform="translate(367.431641 0)"/>
     <use xlink:href="#DejaVuSans-69" transform="translate(422.412109 0)"/>
     <use xlink:href="#DejaVuSans-61" transform="translate(450.195312 0)"/>
     <use xlink:href="#DejaVuSans-6c" transform="translate(511.474609 0)"/>
     <use xlink:href="#DejaVuSans-74" transform="translate(539.257812 0)"/>
     <use xlink:href="#DejaVuSans-69" transform="translate(578.466797 0)"/>
     <use xlink:href="#DejaVuSans-65" transform="translate(606.25 0)"/>
     <use xlink:href="#DejaVuSans-73" transform="translate(667.773438 0)"/>
    </g>
   </g>
   <g id="text_8">
    <!-- 9.2% -->
    <g transform="translate(259.590832 389.648698) scale(0.1 -0.1)">
     <defs>
      <path id="DejaVuSans-39" d="M 703 97 
L 703 672 
Q 941 559 1184 500 
Q 1428 441 1663 441 
Q 2288 441 2617 861 
Q 2947 1281 2994 2138 
Q 2813 1869 2534 1725 
Q 2256 1581 1919 1581 
Q 1219 1581 811 2004 
Q 403 2428 403 3163 
Q 403 3881 828 4315 
Q 1253 4750 1959 4750 
Q 2769 4750 3195 4129 
Q 3622 3509 3622 2328 
Q 3622 1225 3098 567 
Q 2575 -91 1691 -91 
Q 1453 -91 1209 -44 
Q 966 3 703 97 
z
M 1959 2075 
Q 2384 2075 2632 2365 
Q 2881 2656 2881 3163 
Q 2881 3666 2632 3958 
Q 2384 4250 1959 4250 
Q 1534 4250 1286 3958 
Q 1038 3666 1038 3163 
Q 1038 2656 1286 2365 
Q 1534 2075 1959 2075 
z
" transform="scale(0.015625)"/>
      <path id="DejaVuSans-32" d="M 1228 531 
L 3431 531 
L 3431 0 
L 469 0 
L 469 531 
Q 828 903 1448 1529 
Q 2069 2156 2228 2338 
Q 2531 2678 2651 2914 
Q 2772 3150 2772 3378 
Q 2772 3750 2511 3984 
Q 2250 4219 1831 4219 
Q 1534 4219 1204 4116 
Q 875 4013 500 3803 
L 500 4441 
Q 881 4594 1212 4672 
Q 1544 4750 1819 4750 
Q 2544 4750 2975 4387 
Q 3406 4025 3406 3419 
Q 3406 3131 3298 2873 
Q 3191 2616 2906 2266 
Q 2828 2175 2409 1742 
Q 1991 1309 1228 531 
z
" transform="scale(0.015625)"/>
     </defs>
     <use xlink:href="#DejaVuSans-39"/>
     <use xlink:href="#DejaVuSans-2e" transform="translate(63.623047 0)"/>
     <use xlink:href="#DejaVuSans-32" transform="translate(95.410156 0)"/>
     <use xlink:href="#DejaVuSans-25" transform="translate(159.033203 0)"/>
    </g>
   </g>
   <g id="text_9">
    <!-- Obstetrics &amp; -->
    <g transform="translate(349.481475 453.6343) scale(0.1 -0.1)">
     <use xlink:href="#DejaVuSans-4f"/>
     <use xlink:href="#DejaVuSans-62" transform="translate(78.710938 0)"/>
     <use xlink:href="#DejaVuSans-73" transform="translate(142.1875 0)"/>
     <use xlink:href="#DejaVuSans-74" transform="translate(194.287109 0)"/>
     <use xlink:href="#DejaVuSans-65" transform="translate(233.496094 0)"/>
     <use xlink:href="#DejaVuSans-74" transform="translate(295.019531 0)"/>
     <use xlink:href="#DejaVuSans-72" transform="translate(334.228516 0)"/>
     <use xlink:href="#DejaVuSans-69" transform="translate(375.341797 0)"/>
     <use xlink:href="#DejaVuSans-63" transform="translate(403.125 0)"/>
     <use xlink:href="#DejaVuSans-73" transform="translate(458.105469 0)"/>
     <use xlink:href="#DejaVuSans-20" transform="translate(510.205078 0)"/>
     <use xlink:href="#DejaVuSans-26" transform="translate(541.992188 0)"/>
    </g>
    <!-- Gynecology -->
    <g transform="translate(349.481475 464.832112) scale(0.1 -0.1)">
     <defs>
      <path id="DejaVuSans-47" d="M 3809 666 
L 3809 1919 
L 2778 1919 
L 2778 2438 
L 4434 2438 
L 4434 434 
Q 4069 175 3628 42 
Q 3188 -91 2688 -91 
Q 1594 -91 976 548 
Q 359 1188 359 2328 
Q 359 3472 976 4111 
Q 1594 4750 2688 4750 
Q 3144 4750 3555 4637 
Q 3966 4525 4313 4306 
L 4313 3634 
Q 3963 3931 3569 4081 
Q 3175 4231 2741 4231 
Q 1884 4231 1454 3753 
Q 1025 3275 1025 2328 
Q 1025 1384 1454 906 
Q 1884 428 2741 428 
Q 3075 428 3337 486 
Q 3600 544 3809 666 
z
" transform="scale(0.015625)"/>
      <path id="DejaVuSans-6f" d="M 1959 3097 
Q 1497 3097 1228 2736 
Q 959 2375 959 1747 
Q 959 1119 1226 758 
Q 1494 397 1959 397 
Q 2419 397 2687 759 
Q 2956 1122 2956 1747 
Q 2956 2369 2687 2733 
Q 2419 3097 1959 3097 
z
M 1959 3584 
Q 2709 3584 3137 3096 
Q 3566 2609 3566 1747 
Q 3566 888 3137 398 
Q 2709 -91 1959 -91 
Q 1206 -91 779 398 
Q 353 888 353 1747 
Q 353 2609 779 3096 
Q 1206 3584 1959 3584 
z
" transform="scale(0.015625)"/>
     </defs>
     <use xlink:href="#DejaVuSans-47"/>
     <use xlink:href="#DejaVuSans-79" transform="translate(77.490234 0)"/>
     <use xlink:href="#DejaVuSans-6e" transform="translate(136.669922 0)"/>
     <use xlink:href="#DejaVuSans-65" transform="translate(200.048828 0)"/>
     <use xlink:href="#DejaVuSans-63" transform="translate(261.572266 0)"/>
     <use xlink:href="#DejaVuSans-6f" transform="translate(316.552734 0)"/>
     <use xlink:href="#DejaVuSans-6c" transform="translate(377.734375 0)"/>
     <use xlink:href="#DejaVuSans-6f" transform="translate(405.517578 0)"/>
     <use xlink:href="#DejaVuSans-67" transform="translate(466.699219 0)"/>
     <use xlink:href="#DejaVuSans-79" transform="translate(530.175781 0)"/>
    </g>
   </g>
   <g id="text_10">
    <!-- 6.0% -->
    <g transform="translate(320.611954 390.136186) scale(0.1 -0.1)">
     <defs>
      <path id="DejaVuSans-30" d="M 2034 4250 
Q 1547 4250 1301 3770 
Q 1056 3291 1056 2328 
Q 1056 1369 1301 889 
Q 1547 409 2034 409 
Q 2525 409 2770 889 
Q 3016 1369 3016 2328 
Q 3016 3291 2770 3770 
Q 2525 4250 2034 4250 
z
M 2034 4750 
Q 2819 4750 3233 4129 
Q 3647 3509 3647 2328 
Q 3647 1150 3233 529 
Q 2819 -91 2034 -91 
Q 1250 -91 836 529 
Q 422 1150 422 2328 
Q 422 3509 836 4129 
Q 1250 4750 2034 4750 
z
" transform="scale(0.015625)"/>
     </defs>
     <use xlink:href="#DejaVuSans-36"/>
     <use xlink:href="#DejaVuSans-2e" transform="translate(63.623047 0)"/>
     <use xlink:href="#DejaVuSans-30" transform="translate(95.410156 0)"/>
     <use xlink:href="#DejaVuSans-25" transform="translate(159.033203 0)"/>
    </g>
   </g>
   <g id="text_11">
    <!-- Oncology &amp; -->
    <g transform="translate(417.985942 423.214797) scale(0.1 -0.1)">
     <use xlink:href="#DejaVuSans-4f"/>
     <use xlink:href="#DejaVuSans-6e" transform="translate(78.710938 0)"/>
     <use xlink:href="#DejaVuSans-63" transform="translate(142.089844 0)"/>
     <use xlink:href="#DejaVuSans-6f" transform="translate(197.070312 0)"/>
     <use xlink:href="#DejaVuSans-6c" transform="translate(258.251953 0)"/>
     <use xlink:href="#DejaVuSans-6f" transform="translate(286.035156 0)"/>
     <use xlink:href="#DejaVuSans-67" transform="translate(347.216797 0)"/>
     <use xlink:href="#DejaVuSans-79" transform="translate(410.693359 0)"/>
     <use xlink:href="#DejaVuSans-20" transform="translate(469.873047 0)"/>
     <use xlink:href="#DejaVuSans-26" transform="translate(501.660156 0)"/>
    </g>
    <!-- Hematology -->
    <g transform="translate(417.985942 434.41261) scale(0.1 -0.1)">
     <use xlink:href="#DejaVuSans-48"/>
     <use xlink:href="#DejaVuSans-65" transform="translate(75.195312 0)"/>
     <use xlink:href="#DejaVuSans-6d" transform="translate(136.71875 0)"/>
     <use xlink:href="#DejaVuSans-61" transform="translate(234.130859 0)"/>
     <use xlink:href="#DejaVuSans-74" transform="translate(295.410156 0)"/>
     <use xlink:href="#DejaVuSans-6f" transform="translate(334.619141 0)"/>
     <use xlink:href="#DejaVuSans-6c" transform="translate(395.800781 0)"/>
     <use xlink:href="#DejaVuSans-6f" transform="translate(423.583984 0)"/>
     <use xlink:href="#DejaVuSans-67" transform="translate(484.765625 0)"/>
     <use xlink:href="#DejaVuSans-79" transform="translate(548.242188 0)"/>
    </g>
   </g>
   <g id="text_12">
    <!-- 6.0% -->
    <g transform="translate(364.867052 370.484649) scale(0.1 -0.1)">
     <use xlink:href="#DejaVuSans-36"/>
     <use xlink:href="#DejaVuSans-2e" transform="translate(63.623047 0)"/>
     <use xlink:href="#DejaVuSans-30" transform="translate(95.410156 0)"/>
     <use xlink:href="#DejaVuSans-25" transform="translate(159.033203 0)"/>
    </g>
   </g>
   <g id="text_13">
    <!-- Other -->
    <g transform="translate(452.854213 398.1021) scale(0.1 -0.1)">
     <use xlink:href="#DejaVuSans-4f"/>
     <use xlink:href="#DejaVuSans-74" transform="translate(78.710938 0)"/>
     <use xlink:href="#DejaVuSans-68" transform="translate(117.919922 0)"/>
     <use xlink:href="#DejaVuSans-65" transform="translate(181.298828 0)"/>
     <use xlink:href="#DejaVuSans-72" transform="translate(242.822266 0)"/>
    </g>
   </g>
   <g id="text_14">
    <!-- 1.4% -->
    <g transform="translate(387.392573 350.64441) scale(0.1 -0.1)">
     <defs>
      <path id="DejaVuSans-34" d="M 2419 4116 
L 825 1625 
L 2419 1625 
L 2419 4116 
z
M 2253 4666 
L 3047 4666 
L 3047 1625 
L 3713 1625 
L 3713 1100 
L 3047 1100 
L 3047 0 
L 2419 0 
L 2419 1100 
L 313 1100 
L 313 1709 
L 2253 4666 
z
" transform="scale(0.015625)"/>
     </defs>
     <use xlink:href="#DejaVuSans-31"/>
     <use xlink:href="#DejaVuSans-2e" transform="translate(63.623047 0)"/>
     <use xlink:href="#DejaVuSans-34" transform="translate(95.410156 0)"/>
     <use xlink:href="#DejaVuSans-25" transform="translate(159.033203 0)"/>
    </g>
   </g>
   <g id="text_15">
    <!-- Pediatrics &amp; -->
    <g transform="translate(495.259397 317.894953) scale(0.1 -0.1)">
     <use xlink:href="#DejaVuSans-50"/>
     <use xlink:href="#DejaVuSans-65" transform="translate(56.677734 0)"/>
     <use xlink:href="#DejaVuSans-64" transform="translate(118.201172 0)"/>
     <use xlink:href="#DejaVuSans-69" transform="translate(181.677734 0)"/>
     <use xlink:href="#DejaVuSans-61" transform="translate(209.460938 0)"/>
     <use xlink:href="#DejaVuSans-74" transform="translate(270.740234 0)"/>
     <use xlink:href="#DejaVuSans-72" transform="translate(309.949219 0)"/>
     <use xlink:href="#DejaVuSans-69" transform="translate(351.0625 0)"/>
     <use xlink:href="#DejaVuSans-63" transform="translate(378.845703 0)"/>
     <use xlink:href="#DejaVuSans-73" transform="translate(433.826172 0)"/>
     <use xlink:href="#DejaVuSans-20" transform="translate(485.925781 0)"/>
     <use xlink:href="#DejaVuSans-26" transform="translate(517.712891 0)"/>
    </g>
    <!-- Neonatology -->
    <g transform="translate(495.259397 329.092765) scale(0.1 -0.1)">
     <defs>
      <path id="DejaVuSans-4e" d="M 628 4666 
L 1478 4666 
L 3547 763 
L 3547 4666 
L 4159 4666 
L 4159 0 
L 3309 0 
L 1241 3903 
L 1241 0 
L 628 0 
L 628 4666 
z
" transform="scale(0.015625)"/>
     </defs>
     <use xlink:href="#DejaVuSans-4e"/>
     <use xlink:href="#DejaVuSans-65" transform="translate(74.804688 0)"/>
     <use xlink:href="#DejaVuSans-6f" transform="translate(136.328125 0)"/>
     <use xlink:href="#DejaVuSans-6e" transform="translate(197.509766 0)"/>
     <use xlink:href="#DejaVuSans-61" transform="translate(260.888672 0)"/>
     <use xlink:href="#DejaVuSans-74" transform="translate(322.167969 0)"/>
     <use xlink:href="#DejaVuSans-6f" transform="translate(361.376953 0)"/>
     <use xlink:href="#DejaVuSans-6c" transform="translate(422.558594 0)"/>
     <use xlink:href="#DejaVuSans-6f" transform="translate(450.341797 0)"/>
     <use xlink:href="#DejaVuSans-67" transform="translate(511.523438 0)"/>
     <use xlink:href="#DejaVuSans-79" transform="translate(575 0)"/>
    </g>
   </g>
   <g id="text_16">
    <!-- 12.3% -->
    <g transform="translate(411.605822 302.446166) scale(0.1 -0.1)">
     <use xlink:href="#DejaVuSans-31"/>
     <use xlink:href="#DejaVuSans-32" transform="translate(63.623047 0)"/>
     <use xlink:href="#DejaVuSans-2e" transform="translate(127.246094 0)"/>
     <use xlink:href="#DejaVuSans-33" transform="translate(159.033203 0)"/>
     <use xlink:href="#DejaVuSans-25" transform="translate(222.65625 0)"/>
    </g>
   </g>
   <g id="text_17">
    <!-- Psychiatry &amp; -->
    <g transform="translate(475.798417 155.438389) scale(0.1 -0.1)">
     <use xlink:href="#DejaVuSans-50"/>
     <use xlink:href="#DejaVuSans-73" transform="translate(58.552734 0)"/>
     <use xlink:href="#DejaVuSans-79" transform="translate(110.652344 0)"/>
     <use xlink:href="#DejaVuSans-63" transform="translate(169.832031 0)"/>
     <use xlink:href="#DejaVuSans-68" transform="translate(224.8125 0)"/>
     <use xlink:href="#DejaVuSans-69" transform="translate(288.191406 0)"/>
     <use xlink:href="#DejaVuSans-61" transform="translate(315.974609 0)"/>
     <use xlink:href="#DejaVuSans-74" transform="translate(377.253906 0)"/>
     <use xlink:href="#DejaVuSans-72" transform="translate(416.462891 0)"/>
     <use xlink:href="#DejaVuSans-79" transform="translate(457.576172 0)"/>
     <use xlink:href="#DejaVuSans-20" transform="translate(516.755859 0)"/>
     <use xlink:href="#DejaVuSans-26" transform="translate(548.542969 0)"/>
    </g>
    <!-- Neurology -->
    <g transform="translate(475.798417 166.636201) scale(0.1 -0.1)">
     <use xlink:href="#DejaVuSans-4e"/>
     <use xlink:href="#DejaVuSans-65" transform="translate(74.804688 0)"/>
     <use xlink:href="#DejaVuSans-75" transform="translate(136.328125 0)"/>
     <use xlink:href="#DejaVuSans-72" transform="translate(199.707031 0)"/>
     <use xlink:href="#DejaVuSans-6f" transform="translate(238.570312 0)"/>
     <use xlink:href="#DejaVuSans-6c" transform="translate(299.751953 0)"/>
     <use xlink:href="#DejaVuSans-6f" transform="translate(327.535156 0)"/>
     <use xlink:href="#DejaVuSans-67" transform="translate(388.716797 0)"/>
     <use xlink:href="#DejaVuSans-79" transform="translate(452.193359 0)"/>
    </g>
   </g>
   <g id="text_18">
    <!-- 14.4% -->
    <g transform="translate(399.033685 197.49635) scale(0.1 -0.1)">
     <use xlink:href="#DejaVuSans-31"/>
     <use xlink:href="#DejaVuSans-34" transform="translate(63.623047 0)"/>
     <use xlink:href="#DejaVuSans-2e" transform="translate(127.246094 0)"/>
     <use xlink:href="#DejaVuSans-34" transform="translate(159.033203 0)"/>
     <use xlink:href="#DejaVuSans-25" transform="translate(222.65625 0)"/>
    </g>
   </g>
   <g id="text_19">
    <!-- Public Health, Epidemiology &amp; -->
    <g transform="translate(308.736597 58.024743) scale(0.1 -0.1)">
     <defs>
      <path id="DejaVuSans-2c" d="M 750 794 
L 1409 794 
L 1409 256 
L 897 -744 
L 494 -744 
L 750 256 
L 750 794 
z
" transform="scale(0.015625)"/>
     </defs>
     <use xlink:href="#DejaVuSans-50"/>
     <use xlink:href="#DejaVuSans-75" transform="translate(58.552734 0)"/>
     <use xlink:href="#DejaVuSans-62" transform="translate(121.931641 0)"/>
     <use xlink:href="#DejaVuSans-6c" transform="translate(185.408203 0)"/>
     <use xlink:href="#DejaVuSans-69" transform="translate(213.191406 0)"/>
     <use xlink:href="#DejaVuSans-63" transform="translate(240.974609 0)"/>
     <use xlink:href="#DejaVuSans-20" transform="translate(295.955078 0)"/>
     <use xlink:href="#DejaVuSans-48" transform="translate(327.742188 0)"/>
     <use xlink:href="#DejaVuSans-65" transform="translate(402.9375 0)"/>
     <use xlink:href="#DejaVuSans-61" transform="translate(464.460938 0)"/>
     <use xlink:href="#DejaVuSans-6c" transform="translate(525.740234 0)"/>
     <use xlink:href="#DejaVuSans-74" transform="translate(553.523438 0)"/>
     <use xlink:href="#DejaVuSans-68" transform="translate(592.732422 0)"/>
     <use xlink:href="#DejaVuSans-2c" transform="translate(656.111328 0)"/>
     <use xlink:href="#DejaVuSans-20" transform="translate(687.898438 0)"/>
     <use xlink:href="#DejaVuSans-45" transform="translate(719.685547 0)"/>
     <use xlink:href="#DejaVuSans-70" transform="translate(782.869141 0)"/>
     <use xlink:href="#DejaVuSans-69" transform="translate(846.345703 0)"/>
     <use xlink:href="#DejaVuSans-64" transform="translate(874.128906 0)"/>
     <use xlink:href="#DejaVuSans-65" transform="translate(937.605469 0)"/>
     <use xlink:href="#DejaVuSans-6d" transform="translate(999.128906 0)"/>
     <use xlink:href="#DejaVuSans-69" transform="translate(1096.541016 0)"/>
     <use xlink:href="#DejaVuSans-6f" transform="translate(1124.324219 0)"/>
     <use xlink:href="#DejaVuSans-6c" transform="translate(1185.505859 0)"/>
     <use xlink:href="#DejaVuSans-6f" transform="translate(1213.289062 0)"/>
     <use xlink:href="#DejaVuSans-67" transform="translate(1274.470703 0)"/>
     <use xlink:href="#DejaVuSans-79" transform="translate(1337.947266 0)"/>
     <use xlink:href="#DejaVuSans-20" transform="translate(1397.126953 0)"/>
     <use xlink:href="#DejaVuSans-26" transform="translate(1428.914062 0)"/>
    </g>
    <!-- Health Systems -->
    <g transform="translate(308.736597 69.222556) scale(0.1 -0.1)">
     <use xlink:href="#DejaVuSans-48"/>
     <use xlink:href="#DejaVuSans-65" transform="translate(75.195312 0)"/>
     <use xlink:href="#DejaVuSans-61" transform="translate(136.71875 0)"/>
     <use xlink:href="#DejaVuSans-6c" transform="translate(197.998047 0)"/>
     <use xlink:href="#DejaVuSans-74" transform="translate(225.78125 0)"/>
     <use xlink:href="#DejaVuSans-68" transform="translate(264.990234 0)"/>
     <use xlink:href="#DejaVuSans-20" transform="translate(328.369141 0)"/>
     <use xlink:href="#DejaVuSans-53" transform="translate(360.15625 0)"/>
     <use xlink:href="#DejaVuSans-79" transform="translate(423.632812 0)"/>
     <use xlink:href="#DejaVuSans-73" transform="translate(482.8125 0)"/>
     <use xlink:href="#DejaVuSans-74" transform="translate(534.912109 0)"/>
     <use xlink:href="#DejaVuSans-65" transform="translate(574.121094 0)"/>
     <use xlink:href="#DejaVuSans-6d" transform="translate(635.644531 0)"/>
     <use xlink:href="#DejaVuSans-73" transform="translate(733.056641 0)"/>
    </g>
   </g>
   <g id="text_20">
    <!-- 17.6% -->
    <g transform="translate(291.108792 134.565411) scale(0.1 -0.1)">
     <defs>
      <path id="DejaVuSans-37" d="M 525 4666 
L 3525 4666 
L 3525 4397 
L 1831 0 
L 1172 0 
L 2766 4134 
L 525 4134 
L 525 4666 
z
" transform="scale(0.015625)"/>
     </defs>
     <use xlink:href="#DejaVuSans-31"/>
     <use xlink:href="#DejaVuSans-37" transform="translate(63.623047 0)"/>
     <use xlink:href="#DejaVuSans-2e" transform="translate(127.246094 0)"/>
     <use xlink:href="#DejaVuSans-36" transform="translate(159.033203 0)"/>
     <use xlink:href="#DejaVuSans-25" transform="translate(222.65625 0)"/>
    </g>
   </g>
   <g id="text_21">
    <!-- Surgery -->
    <g transform="translate(82.759894 179.758286) scale(0.1 -0.1)">
     <use xlink:href="#DejaVuSans-53"/>
     <use xlink:href="#DejaVuSans-75" transform="translate(63.476562 0)"/>
     <use xlink:href="#DejaVuSans-72" transform="translate(126.855469 0)"/>
     <use xlink:href="#DejaVuSans-67" transform="translate(166.21875 0)"/>
     <use xlink:href="#DejaVuSans-65" transform="translate(229.695312 0)"/>
     <use xlink:href="#DejaVuSans-72" transform="translate(291.21875 0)"/>
     <use xlink:href="#DejaVuSans-79" transform="translate(332.332031 0)"/>
    </g>
   </g>
   <g id="text_22">
    <!-- 19.4% -->
    <g transform="translate(170.417454 209.590441) scale(0.1 -0.1)">
     <use xlink:href="#DejaVuSans-31"/>
     <use xlink:href="#DejaVuSans-39" transform="translate(63.623047 0)"/>
     <use xlink:href="#DejaVuSans-2e" transform="translate(127.246094 0)"/>
     <use xlink:href="#DejaVuSans-34" transform="translate(159.033203 0)"/>
     <use xlink:href="#DejaVuSans-25" transform="translate(222.65625 0)"/>
    </g>
   </g>
   <g id="text_23">
    <!-- (a) Dataset stratified by medical specialty -->
    <g transform="translate(156.617794 17.837812) scale(0.14 -0.14)">
     <defs>
      <path id="DejaVuSans-28" d="M 1984 4856 
Q 1566 4138 1362 3434 
Q 1159 2731 1159 2009 
Q 1159 1288 1364 580 
Q 1569 -128 1984 -844 
L 1484 -844 
Q 1016 -109 783 600 
Q 550 1309 550 2009 
Q 550 2706 781 3412 
Q 1013 4119 1484 4856 
L 1984 4856 
z
" transform="scale(0.015625)"/>
      <path id="DejaVuSans-29" d="M 513 4856 
L 1013 4856 
Q 1481 4119 1714 3412 
Q 1947 2706 1947 2009 
Q 1947 1309 1714 600 
Q 1481 -109 1013 -844 
L 513 -844 
Q 928 -128 1133 580 
Q 1338 1288 1338 2009 
Q 1338 2731 1133 3434 
Q 928 4138 513 4856 
z
" transform="scale(0.015625)"/>
      <path id="DejaVuSans-66" d="M 2375 4863 
L 2375 4384 
L 1825 4384 
Q 1516 4384 1395 4259 
Q 1275 4134 1275 3809 
L 1275 3500 
L 2222 3500 
L 2222 3053 
L 1275 3053 
L 1275 0 
L 697 0 
L 697 3053 
L 147 3053 
L 147 3500 
L 697 3500 
L 697 3744 
Q 697 4328 969 4595 
Q 1241 4863 1831 4863 
L 2375 4863 
z
" transform="scale(0.015625)"/>
     </defs>
     <use xlink:href="#DejaVuSans-28"/>
     <use xlink:href="#DejaVuSans-61" transform="translate(39.013672 0)"/>
     <use xlink:href="#DejaVuSans-29" transform="translate(100.292969 0)"/>
     <use xlink:href="#DejaVuSans-20" transform="translate(139.306641 0)"/>
     <use xlink:href="#DejaVuSans-44" transform="translate(171.09375 0)"/>
     <use xlink:href="#DejaVuSans-61" transform="translate(248.095703 0)"/>
     <use xlink:href="#DejaVuSans-74" transform="translate(309.375 0)"/>
     <use xlink:href="#DejaVuSans-61" transform="translate(348.583984 0)"/>
     <use xlink:href="#DejaVuSans-73" transform="translate(409.863281 0)"/>
     <use xlink:href="#DejaVuSans-65" transform="translate(461.962891 0)"/>
     <use xlink:href="#DejaVuSans-74" transform="translate(523.486328 0)"/>
     <use xlink:href="#DejaVuSans-20" transform="translate(562.695312 0)"/>
     <use xlink:href="#DejaVuSans-73" transform="translate(594.482422 0)"/>
     <use xlink:href="#DejaVuSans-74" transform="translate(646.582031 0)"/>
     <use xlink:href="#DejaVuSans-72" transform="translate(685.791016 0)"/>
     <use xlink:href="#DejaVuSans-61" transform="translate(726.904297 0)"/>
     <use xlink:href="#DejaVuSans-74" transform="translate(788.183594 0)"/>
     <use xlink:href="#DejaVuSans-69" transform="translate(827.392578 0)"/>
     <use xlink:href="#DejaVuSans-66" transform="translate(855.175781 0)"/>
     <use xlink:href="#DejaVuSans-69" transform="translate(890.380859 0)"/>
     <use xlink:href="#DejaVuSans-65" transform="translate(918.164062 0)"/>
     <use xlink:href="#DejaVuSans-64" transform="translate(979.6875 0)"/>
     <use xlink:href="#DejaVuSans-20" transform="translate(1043.164062 0)"/>
     <use xlink:href="#DejaVuSans-62" transform="translate(1074.951172 0)"/>
     <use xlink:href="#DejaVuSans-79" transform="translate(1138.427734 0)"/>
     <use xlink:href="#DejaVuSans-20" transform="translate(1197.607422 0)"/>
     <use xlink:href="#DejaVuSans-6d" transform="translate(1229.394531 0)"/>
     <use xlink:href="#DejaVuSans-65" transform="translate(1326.806641 0)"/>
     <use xlink:href="#DejaVuSans-64" transform="translate(1388.330078 0)"/>
     <use xlink:href="#DejaVuSans-69" transform="translate(1451.806641 0)"/>
     <use xlink:href="#DejaVuSans-63" transform="translate(1479.589844 0)"/>
     <use xlink:href="#DejaVuSans-61" transform="translate(1534.570312 0)"/>
     <use xlink:href="#DejaVuSans-6c" transform="translate(1595.849609 0)"/>
     <use xlink:href="#DejaVuSans-20" transform="translate(1623.632812 0)"/>
     <use xlink:href="#DejaVuSans-73" transform="translate(1655.419922 0)"/>
     <use xlink:href="#DejaVuSans-70" transform="translate(1707.519531 0)"/>
     <use xlink:href="#DejaVuSans-65" transform="translate(1770.996094 0)"/>
     <use xlink:href="#DejaVuSans-63" transform="translate(1832.519531 0)"/>
     <use xlink:href="#DejaVuSans-69" transform="translate(1887.5 0)"/>
     <use xlink:href="#DejaVuSans-61" transform="translate(1915.283203 0)"/>
     <use xlink:href="#DejaVuSans-6c" transform="translate(1976.5625 0)"/>
     <use xlink:href="#DejaVuSans-74" transform="translate(2004.345703 0)"/>
     <use xlink:href="#DejaVuSans-79" transform="translate(2043.554688 0)"/>
    </g>
    <!--  -->
    <g transform="translate(303.8092 33.51475) scale(0.14 -0.14)"/>
   </g>
  </g>
  <g id="axes_2">
   <g id="patch_13">
    <path d="M 839.652341 259.640329 
C 839.652341 240.259724 833.930716 221.303735 823.208034 205.159636 
C 812.485353 189.015537 797.231468 176.39074 779.367418 168.875183 
L 756.456019 223.334271 
C 763.601639 226.340493 769.703193 231.390412 773.992266 237.848052 
C 778.281339 244.305692 780.569989 251.888087 780.569989 259.640329 
z
" style="fill: #db5f57"/>
   </g>
   <g id="patch_14">
    <path d="M 776.290301 167.620492 
C 757.742167 159.817141 737.240354 157.883721 717.560413 162.082 
C 697.880473 166.280272 679.952462 176.411824 666.20347 191.105047 
L 709.344171 231.473403 
C 714.843768 225.596114 722.014972 221.543493 729.886948 219.864184 
C 737.758925 218.184873 745.95965 218.958241 753.378903 222.079581 
z
" style="fill: #d3db57"/>
   </g>
   <g id="patch_15">
    <path d="M 663.987021 194.832126 
C 652.261776 207.362616 644.013314 222.743205 640.062591 239.443094 
C 636.111869 256.142983 636.594466 273.589115 641.462338 290.045066 
C 646.330216 306.501017 655.41634 321.402109 667.81636 333.265247 
C 680.216381 345.128385 695.504784 353.546476 712.15995 357.681689 
L 726.396894 300.340308 
C 719.734827 298.686223 713.619466 295.318986 708.659458 290.573731 
C 703.699449 285.828476 700.065 279.868039 698.117849 273.285659 
C 696.1707 266.703278 695.977661 259.724826 697.55795 253.04487 
C 699.138239 246.364914 702.437624 240.212679 707.127722 235.200483 
z
" style="fill: #57db5f"/>
   </g>
   <g id="patch_16">
    <path d="M 715.672814 359.718486 
C 730.896764 363.498354 746.805835 363.586346 762.070666 359.975116 
C 777.335498 356.363891 791.518739 349.156925 803.435329 338.956391 
L 765.014763 294.072267 
C 760.248128 298.152481 754.574831 301.035267 748.468898 302.479757 
C 742.362966 303.924249 735.999338 303.889052 729.909758 302.377105 
z
" style="fill: #57d3db"/>
   </g>
   <g id="patch_17">
    <path d="M 805.438686 337.316909 
C 816.23786 328.072878 824.908366 316.599039 830.852592 303.686235 
C 836.796818 290.773431 839.874999 276.725302 839.874999 262.510019 
L 780.792646 262.510029 
C 780.792646 268.196142 779.561373 273.815394 777.183683 278.980516 
C 774.805993 284.145637 771.33779 288.735173 767.018121 292.432785 
z
" style="fill: #5f57db"/>
   </g>
   <g id="matplotlib.axis_3"/>
   <g id="matplotlib.axis_4"/>
   <g id="text_24">
    <!-- higher -->
    <g transform="translate(827.309348 205.194975) scale(0.1 -0.1)">
     <use xlink:href="#DejaVuSans-68"/>
     <use xlink:href="#DejaVuSans-69" transform="translate(63.378906 0)"/>
     <use xlink:href="#DejaVuSans-67" transform="translate(91.162109 0)"/>
     <use xlink:href="#DejaVuSans-68" transform="translate(154.638672 0)"/>
     <use xlink:href="#DejaVuSans-65" transform="translate(218.017578 0)"/>
     <use xlink:href="#DejaVuSans-72" transform="translate(279.541016 0)"/>
    </g>
   </g>
   <g id="text_25">
    <!-- 18.7% -->
    <g transform="translate(782.716556 224.263218) scale(0.1 -0.1)">
     <defs>
      <path id="DejaVuSans-38" d="M 2034 2216 
Q 1584 2216 1326 1975 
Q 1069 1734 1069 1313 
Q 1069 891 1326 650 
Q 1584 409 2034 409 
Q 2484 409 2743 651 
Q 3003 894 3003 1313 
Q 3003 1734 2745 1975 
Q 2488 2216 2034 2216 
z
M 1403 2484 
Q 997 2584 770 2862 
Q 544 3141 544 3541 
Q 544 4100 942 4425 
Q 1341 4750 2034 4750 
Q 2731 4750 3128 4425 
Q 3525 4100 3525 3541 
Q 3525 3141 3298 2862 
Q 3072 2584 2669 2484 
Q 3125 2378 3379 2068 
Q 3634 1759 3634 1313 
Q 3634 634 3220 271 
Q 2806 -91 2034 -91 
Q 1263 -91 848 271 
Q 434 634 434 1313 
Q 434 1759 690 2068 
Q 947 2378 1403 2484 
z
M 1172 3481 
Q 1172 3119 1398 2916 
Q 1625 2713 2034 2713 
Q 2441 2713 2670 2916 
Q 2900 3119 2900 3481 
Q 2900 3844 2670 4047 
Q 2441 4250 2034 4250 
Q 1625 4250 1398 4047 
Q 1172 3844 1172 3481 
z
" transform="scale(0.015625)"/>
     </defs>
     <use xlink:href="#DejaVuSans-31"/>
     <use xlink:href="#DejaVuSans-38" transform="translate(63.623047 0)"/>
     <use xlink:href="#DejaVuSans-2e" transform="translate(127.246094 0)"/>
     <use xlink:href="#DejaVuSans-37" transform="translate(159.033203 0)"/>
     <use xlink:href="#DejaVuSans-25" transform="translate(222.65625 0)"/>
    </g>
   </g>
   <g id="text_26">
    <!-- lower -->
    <g transform="translate(689.194151 160.026189) scale(0.1 -0.1)">
     <defs>
      <path id="DejaVuSans-77" d="M 269 3500 
L 844 3500 
L 1563 769 
L 2278 3500 
L 2956 3500 
L 3675 769 
L 4391 3500 
L 4966 3500 
L 4050 0 
L 3372 0 
L 2619 2869 
L 1863 0 
L 1184 0 
L 269 3500 
z
" transform="scale(0.015625)"/>
     </defs>
     <use xlink:href="#DejaVuSans-6c"/>
     <use xlink:href="#DejaVuSans-6f" transform="translate(27.783203 0)"/>
     <use xlink:href="#DejaVuSans-77" transform="translate(88.964844 0)"/>
     <use xlink:href="#DejaVuSans-65" transform="translate(170.751953 0)"/>
     <use xlink:href="#DejaVuSans-72" transform="translate(232.275391 0)"/>
    </g>
   </g>
   <g id="text_27">
    <!-- 19.4% -->
    <g transform="translate(707.840095 193.732464) scale(0.1 -0.1)">
     <use xlink:href="#DejaVuSans-31"/>
     <use xlink:href="#DejaVuSans-39" transform="translate(63.623047 0)"/>
     <use xlink:href="#DejaVuSans-2e" transform="translate(127.246094 0)"/>
     <use xlink:href="#DejaVuSans-34" transform="translate(159.033203 0)"/>
     <use xlink:href="#DejaVuSans-25" transform="translate(222.65625 0)"/>
    </g>
   </g>
   <g id="text_28">
    <!-- no difference -->
    <g transform="translate(570.758236 294.201057) scale(0.1 -0.1)">
     <use xlink:href="#DejaVuSans-6e"/>
     <use xlink:href="#DejaVuSans-6f" transform="translate(63.378906 0)"/>
     <use xlink:href="#DejaVuSans-20" transform="translate(124.560547 0)"/>
     <use xlink:href="#DejaVuSans-64" transform="translate(156.347656 0)"/>
     <use xlink:href="#DejaVuSans-69" transform="translate(219.824219 0)"/>
     <use xlink:href="#DejaVuSans-66" transform="translate(247.607422 0)"/>
     <use xlink:href="#DejaVuSans-66" transform="translate(282.8125 0)"/>
     <use xlink:href="#DejaVuSans-65" transform="translate(318.017578 0)"/>
     <use xlink:href="#DejaVuSans-72" transform="translate(379.541016 0)"/>
     <use xlink:href="#DejaVuSans-65" transform="translate(418.404297 0)"/>
     <use xlink:href="#DejaVuSans-6e" transform="translate(479.927734 0)"/>
     <use xlink:href="#DejaVuSans-63" transform="translate(543.306641 0)"/>
     <use xlink:href="#DejaVuSans-65" transform="translate(598.287109 0)"/>
    </g>
   </g>
   <g id="text_29">
    <!-- 33.1% -->
    <g transform="translate(653.906502 284.424736) scale(0.1 -0.1)">
     <use xlink:href="#DejaVuSans-33"/>
     <use xlink:href="#DejaVuSans-33" transform="translate(63.623047 0)"/>
     <use xlink:href="#DejaVuSans-2e" transform="translate(127.246094 0)"/>
     <use xlink:href="#DejaVuSans-31" transform="translate(159.033203 0)"/>
     <use xlink:href="#DejaVuSans-25" transform="translate(222.65625 0)"/>
    </g>
   </g>
   <g id="text_30">
    <!-- uncertain effect -->
    <g transform="translate(763.204147 367.525772) scale(0.1 -0.1)">
     <use xlink:href="#DejaVuSans-75"/>
     <use xlink:href="#DejaVuSans-6e" transform="translate(63.378906 0)"/>
     <use xlink:href="#DejaVuSans-63" transform="translate(126.757812 0)"/>
     <use xlink:href="#DejaVuSans-65" transform="translate(181.738281 0)"/>
     <use xlink:href="#DejaVuSans-72" transform="translate(243.261719 0)"/>
     <use xlink:href="#DejaVuSans-74" transform="translate(284.375 0)"/>
     <use xlink:href="#DejaVuSans-61" transform="translate(323.583984 0)"/>
     <use xlink:href="#DejaVuSans-69" transform="translate(384.863281 0)"/>
     <use xlink:href="#DejaVuSans-6e" transform="translate(412.646484 0)"/>
     <use xlink:href="#DejaVuSans-20" transform="translate(476.025391 0)"/>
     <use xlink:href="#DejaVuSans-65" transform="translate(507.8125 0)"/>
     <use xlink:href="#DejaVuSans-66" transform="translate(569.335938 0)"/>
     <use xlink:href="#DejaVuSans-66" transform="translate(604.541016 0)"/>
     <use xlink:href="#DejaVuSans-65" transform="translate(639.746094 0)"/>
     <use xlink:href="#DejaVuSans-63" transform="translate(701.269531 0)"/>
     <use xlink:href="#DejaVuSans-74" transform="translate(756.25 0)"/>
    </g>
   </g>
   <g id="text_31">
    <!-- 15.1% -->
    <g transform="translate(739.386189 333.986812) scale(0.1 -0.1)">
     <defs>
      <path id="DejaVuSans-35" d="M 691 4666 
L 3169 4666 
L 3169 4134 
L 1269 4134 
L 1269 2991 
Q 1406 3038 1543 3061 
Q 1681 3084 1819 3084 
Q 2600 3084 3056 2656 
Q 3513 2228 3513 1497 
Q 3513 744 3044 326 
Q 2575 -91 1722 -91 
Q 1428 -91 1123 -41 
Q 819 9 494 109 
L 494 744 
Q 775 591 1075 516 
Q 1375 441 1709 441 
Q 2250 441 2565 725 
Q 2881 1009 2881 1497 
Q 2881 1984 2565 2268 
Q 2250 2553 1709 2553 
Q 1456 2553 1204 2497 
Q 953 2441 691 2322 
L 691 4666 
z
" transform="scale(0.015625)"/>
     </defs>
     <use xlink:href="#DejaVuSans-31"/>
     <use xlink:href="#DejaVuSans-35" transform="translate(63.623047 0)"/>
     <use xlink:href="#DejaVuSans-2e" transform="translate(127.246094 0)"/>
     <use xlink:href="#DejaVuSans-31" transform="translate(159.033203 0)"/>
     <use xlink:href="#DejaVuSans-25" transform="translate(222.65625 0)"/>
    </g>
   </g>
   <g id="text_32">
    <!-- insufficient data -->
    <g transform="translate(835.325001 308.504421) scale(0.1 -0.1)">
     <use xlink:href="#DejaVuSans-69"/>
     <use xlink:href="#DejaVuSans-6e" transform="translate(27.783203 0)"/>
     <use xlink:href="#DejaVuSans-73" transform="translate(91.162109 0)"/>
     <use xlink:href="#DejaVuSans-75" transform="translate(143.261719 0)"/>
     <use xlink:href="#DejaVuSans-66" transform="translate(206.640625 0)"/>
     <use xlink:href="#DejaVuSans-66" transform="translate(241.845703 0)"/>
     <use xlink:href="#DejaVuSans-69" transform="translate(277.050781 0)"/>
     <use xlink:href="#DejaVuSans-63" transform="translate(304.833984 0)"/>
     <use xlink:href="#DejaVuSans-69" transform="translate(359.814453 0)"/>
     <use xlink:href="#DejaVuSans-65" transform="translate(387.597656 0)"/>
     <use xlink:href="#DejaVuSans-6e" transform="translate(449.121094 0)"/>
     <use xlink:href="#DejaVuSans-74" transform="translate(512.5 0)"/>
     <use xlink:href="#DejaVuSans-20" transform="translate(551.708984 0)"/>
     <use xlink:href="#DejaVuSans-64" transform="translate(583.496094 0)"/>
     <use xlink:href="#DejaVuSans-61" transform="translate(646.972656 0)"/>
     <use xlink:href="#DejaVuSans-74" transform="translate(708.251953 0)"/>
     <use xlink:href="#DejaVuSans-61" transform="translate(747.460938 0)"/>
    </g>
   </g>
   <g id="text_33">
    <!-- 13.7% -->
    <g transform="translate(788.134544 294.092751) scale(0.1 -0.1)">
     <use xlink:href="#DejaVuSans-31"/>
     <use xlink:href="#DejaVuSans-33" transform="translate(63.623047 0)"/>
     <use xlink:href="#DejaVuSans-2e" transform="translate(127.246094 0)"/>
     <use xlink:href="#DejaVuSans-37" transform="translate(159.033203 0)"/>
     <use xlink:href="#DejaVuSans-25" transform="translate(222.65625 0)"/>
    </g>
   </g>
   <g id="text_34">
    <!-- (b) Dataset stratified by -->
    <g transform="translate(654.735184 17.837813) scale(0.14 -0.14)">
     <use xlink:href="#DejaVuSans-28"/>
     <use xlink:href="#DejaVuSans-62" transform="translate(39.013672 0)"/>
     <use xlink:href="#DejaVuSans-29" transform="translate(102.490234 0)"/>
     <use xlink:href="#DejaVuSans-20" transform="translate(141.503906 0)"/>
     <use xlink:href="#DejaVuSans-44" transform="translate(173.291016 0)"/>
     <use xlink:href="#DejaVuSans-61" transform="translate(250.292969 0)"/>
     <use xlink:href="#DejaVuSans-74" transform="translate(311.572266 0)"/>
     <use xlink:href="#DejaVuSans-61" transform="translate(350.78125 0)"/>
     <use xlink:href="#DejaVuSans-73" transform="translate(412.060547 0)"/>
     <use xlink:href="#DejaVuSans-65" transform="translate(464.160156 0)"/>
     <use xlink:href="#DejaVuSans-74" transform="translate(525.683594 0)"/>
     <use xlink:href="#DejaVuSans-20" transform="translate(564.892578 0)"/>
     <use xlink:href="#DejaVuSans-73" transform="translate(596.679688 0)"/>
     <use xlink:href="#DejaVuSans-74" transform="translate(648.779297 0)"/>
     <use xlink:href="#DejaVuSans-72" transform="translate(687.988281 0)"/>
     <use xlink:href="#DejaVuSans-61" transform="translate(729.101562 0)"/>
     <use xlink:href="#DejaVuSans-74" transform="translate(790.380859 0)"/>
     <use xlink:href="#DejaVuSans-69" transform="translate(829.589844 0)"/>
     <use xlink:href="#DejaVuSans-66" transform="translate(857.373047 0)"/>
     <use xlink:href="#DejaVuSans-69" transform="translate(892.578125 0)"/>
     <use xlink:href="#DejaVuSans-65" transform="translate(920.361328 0)"/>
     <use xlink:href="#DejaVuSans-64" transform="translate(981.884766 0)"/>
     <use xlink:href="#DejaVuSans-20" transform="translate(1045.361328 0)"/>
     <use xlink:href="#DejaVuSans-62" transform="translate(1077.148438 0)"/>
     <use xlink:href="#DejaVuSans-79" transform="translate(1140.625 0)"/>
    </g>
    <!-- treatment outcome effect -->
    <g transform="translate(648.30284 33.51475) scale(0.14 -0.14)">
     <use xlink:href="#DejaVuSans-74"/>
     <use xlink:href="#DejaVuSans-72" transform="translate(39.208984 0)"/>
     <use xlink:href="#DejaVuSans-65" transform="translate(78.072266 0)"/>
     <use xlink:href="#DejaVuSans-61" transform="translate(139.595703 0)"/>
     <use xlink:href="#DejaVuSans-74" transform="translate(200.875 0)"/>
     <use xlink:href="#DejaVuSans-6d" transform="translate(240.083984 0)"/>
     <use xlink:href="#DejaVuSans-65" transform="translate(337.496094 0)"/>
     <use xlink:href="#DejaVuSans-6e" transform="translate(399.019531 0)"/>
     <use xlink:href="#DejaVuSans-74" transform="translate(462.398438 0)"/>
     <use xlink:href="#DejaVuSans-20" transform="translate(501.607422 0)"/>
     <use xlink:href="#DejaVuSans-6f" transform="translate(533.394531 0)"/>
     <use xlink:href="#DejaVuSans-75" transform="translate(594.576172 0)"/>
     <use xlink:href="#DejaVuSans-74" transform="translate(657.955078 0)"/>
     <use xlink:href="#DejaVuSans-63" transform="translate(697.164062 0)"/>
     <use xlink:href="#DejaVuSans-6f" transform="translate(752.144531 0)"/>
     <use xlink:href="#DejaVuSans-6d" transform="translate(813.326172 0)"/>
     <use xlink:href="#DejaVuSans-65" transform="translate(910.738281 0)"/>
     <use xlink:href="#DejaVuSans-20" transform="translate(972.261719 0)"/>
     <use xlink:href="#DejaVuSans-65" transform="translate(1004.048828 0)"/>
     <use xlink:href="#DejaVuSans-66" transform="translate(1065.572266 0)"/>
     <use xlink:href="#DejaVuSans-66" transform="translate(1100.777344 0)"/>
     <use xlink:href="#DejaVuSans-65" transform="translate(1135.982422 0)"/>
     <use xlink:href="#DejaVuSans-63" transform="translate(1197.505859 0)"/>
     <use xlink:href="#DejaVuSans-74" transform="translate(1252.486328 0)"/>
    </g>
   </g>
  </g>
  <g id="axes_3">
   <g id="patch_18">
    <path d="M 950.819666 263.949389 
C 950.819666 282.655707 956.150085 300.980349 966.18395 316.767936 
C 976.217814 332.555523 990.54567 345.161807 1007.482248 353.104015 
C 1024.418826 361.046223 1043.272992 364.000254 1061.827084 361.61865 
C 1080.381175 359.237046 1097.878051 351.616994 1112.259697 339.654778 
L 1074.478031 294.231545 
C 1068.725373 299.016431 1061.726622 302.064452 1054.304986 303.017093 
C 1046.883349 303.969735 1039.341683 302.788122 1032.567052 299.611239 
C 1025.79242 296.434356 1020.061278 291.391842 1016.047732 285.076808 
C 1012.034186 278.761773 1009.902019 271.431916 1009.902019 263.949389 
z
" style="fill: #db5f57"/>
   </g>
   <g id="patch_19">
    <path d="M 1116.380393 337.694449 
C 1132.480113 324.303191 1143.895886 306.119099 1148.959476 285.799485 
C 1154.023072 265.479871 1152.475172 244.065225 1144.541997 224.685045 
L 1089.863369 247.067455 
C 1093.036639 254.819527 1093.655799 263.385385 1091.630361 271.513231 
C 1089.604925 279.641077 1085.038615 286.914713 1078.598727 292.271216 
z
" style="fill: #dbd057"/>
   </g>
   <g id="patch_20">
    <path d="M 1141.105252 221.072185 
C 1132.463382 199.960705 1116.748354 182.494412 1096.663856 171.678259 
C 1076.579354 160.862105 1053.347217 157.354145 1030.964565 161.757931 
C 1008.581916 166.161717 988.410419 178.209292 973.920451 195.827952 
C 959.430482 213.446612 951.503617 235.564444 951.503617 258.376204 
L 1010.58597 258.376203 
C 1010.58597 249.251499 1013.756716 240.404366 1019.552703 233.356902 
C 1025.348691 226.309438 1033.417289 221.490408 1042.370349 219.728893 
C 1051.32341 217.967379 1060.616265 219.370563 1068.650065 223.697025 
C 1076.683865 228.023486 1082.969876 235.010003 1086.426624 243.454595 
z
" style="fill: #75db57"/>
   </g>
   <g id="matplotlib.axis_5"/>
   <g id="matplotlib.axis_6"/>
   <g id="text_35">
    <!-- No agreement -->
    <g transform="translate(933.793406 360.321119) scale(0.1 -0.1)">
     <use xlink:href="#DejaVuSans-4e"/>
     <use xlink:href="#DejaVuSans-6f" transform="translate(74.804688 0)"/>
     <use xlink:href="#DejaVuSans-20" transform="translate(135.986328 0)"/>
     <use xlink:href="#DejaVuSans-61" transform="translate(167.773438 0)"/>
     <use xlink:href="#DejaVuSans-67" transform="translate(229.052734 0)"/>
     <use xlink:href="#DejaVuSans-72" transform="translate(292.529297 0)"/>
     <use xlink:href="#DejaVuSans-65" transform="translate(331.392578 0)"/>
     <use xlink:href="#DejaVuSans-65" transform="translate(392.916016 0)"/>
     <use xlink:href="#DejaVuSans-6d" transform="translate(454.439453 0)"/>
     <use xlink:href="#DejaVuSans-65" transform="translate(551.851562 0)"/>
     <use xlink:href="#DejaVuSans-6e" transform="translate(613.375 0)"/>
     <use xlink:href="#DejaVuSans-74" transform="translate(676.753906 0)"/>
    </g>
   </g>
   <g id="text_36">
    <!-- 36.0% -->
    <g transform="translate(1004.141053 329.117001) scale(0.1 -0.1)">
     <use xlink:href="#DejaVuSans-33"/>
     <use xlink:href="#DejaVuSans-36" transform="translate(63.623047 0)"/>
     <use xlink:href="#DejaVuSans-2e" transform="translate(127.246094 0)"/>
     <use xlink:href="#DejaVuSans-30" transform="translate(159.033203 0)"/>
     <use xlink:href="#DejaVuSans-25" transform="translate(222.65625 0)"/>
    </g>
   </g>
   <g id="text_37">
    <!-- Mixed agreement -->
    <g transform="translate(1153.736912 289.749334) scale(0.1 -0.1)">
     <defs>
      <path id="DejaVuSans-78" d="M 3513 3500 
L 2247 1797 
L 3578 0 
L 2900 0 
L 1881 1375 
L 863 0 
L 184 0 
L 1544 1831 
L 300 3500 
L 978 3500 
L 1906 2253 
L 2834 3500 
L 3513 3500 
z
" transform="scale(0.015625)"/>
     </defs>
     <use xlink:href="#DejaVuSans-4d"/>
     <use xlink:href="#DejaVuSans-69" transform="translate(86.279297 0)"/>
     <use xlink:href="#DejaVuSans-78" transform="translate(114.0625 0)"/>
     <use xlink:href="#DejaVuSans-65" transform="translate(170.117188 0)"/>
     <use xlink:href="#DejaVuSans-64" transform="translate(231.640625 0)"/>
     <use xlink:href="#DejaVuSans-20" transform="translate(295.117188 0)"/>
     <use xlink:href="#DejaVuSans-61" transform="translate(326.904297 0)"/>
     <use xlink:href="#DejaVuSans-67" transform="translate(388.183594 0)"/>
     <use xlink:href="#DejaVuSans-72" transform="translate(451.660156 0)"/>
     <use xlink:href="#DejaVuSans-65" transform="translate(490.523438 0)"/>
     <use xlink:href="#DejaVuSans-65" transform="translate(552.046875 0)"/>
     <use xlink:href="#DejaVuSans-6d" transform="translate(613.570312 0)"/>
     <use xlink:href="#DejaVuSans-65" transform="translate(710.982422 0)"/>
     <use xlink:href="#DejaVuSans-6e" transform="translate(772.505859 0)"/>
     <use xlink:href="#DejaVuSans-74" transform="translate(835.884766 0)"/>
    </g>
   </g>
   <g id="text_38">
    <!-- 20.1% -->
    <g transform="translate(1104.411331 281.415702) scale(0.1 -0.1)">
     <use xlink:href="#DejaVuSans-32"/>
     <use xlink:href="#DejaVuSans-30" transform="translate(63.623047 0)"/>
     <use xlink:href="#DejaVuSans-2e" transform="translate(127.246094 0)"/>
     <use xlink:href="#DejaVuSans-31" transform="translate(159.033203 0)"/>
     <use xlink:href="#DejaVuSans-25" transform="translate(222.65625 0)"/>
    </g>
   </g>
   <g id="text_39">
    <!-- Full agreement -->
    <g transform="translate(954.920333 159.686392) scale(0.1 -0.1)">
     <use xlink:href="#DejaVuSans-46"/>
     <use xlink:href="#DejaVuSans-75" transform="translate(52.019531 0)"/>
     <use xlink:href="#DejaVuSans-6c" transform="translate(115.398438 0)"/>
     <use xlink:href="#DejaVuSans-6c" transform="translate(143.181641 0)"/>
     <use xlink:href="#DejaVuSans-20" transform="translate(170.964844 0)"/>
     <use xlink:href="#DejaVuSans-61" transform="translate(202.751953 0)"/>
     <use xlink:href="#DejaVuSans-67" transform="translate(264.03125 0)"/>
     <use xlink:href="#DejaVuSans-72" transform="translate(327.507812 0)"/>
     <use xlink:href="#DejaVuSans-65" transform="translate(366.371094 0)"/>
     <use xlink:href="#DejaVuSans-65" transform="translate(427.894531 0)"/>
     <use xlink:href="#DejaVuSans-6d" transform="translate(489.417969 0)"/>
     <use xlink:href="#DejaVuSans-65" transform="translate(586.830078 0)"/>
     <use xlink:href="#DejaVuSans-6e" transform="translate(648.353516 0)"/>
     <use xlink:href="#DejaVuSans-74" transform="translate(711.732422 0)"/>
    </g>
   </g>
   <g id="text_40">
    <!-- 43.8% -->
    <g transform="translate(1020.783863 193.502787) scale(0.1 -0.1)">
     <use xlink:href="#DejaVuSans-34"/>
     <use xlink:href="#DejaVuSans-33" transform="translate(63.623047 0)"/>
     <use xlink:href="#DejaVuSans-2e" transform="translate(127.246094 0)"/>
     <use xlink:href="#DejaVuSans-38" transform="translate(159.033203 0)"/>
     <use xlink:href="#DejaVuSans-25" transform="translate(222.65625 0)"/>
    </g>
   </g>
   <g id="text_41">
    <!-- (c) Dataset stratified by source -->
    <g transform="translate(941.686838 17.837812) scale(0.14 -0.14)">
     <use xlink:href="#DejaVuSans-28"/>
     <use xlink:href="#DejaVuSans-63" transform="translate(39.013672 0)"/>
     <use xlink:href="#DejaVuSans-29" transform="translate(93.994141 0)"/>
     <use xlink:href="#DejaVuSans-20" transform="translate(133.007812 0)"/>
     <use xlink:href="#DejaVuSans-44" transform="translate(164.794922 0)"/>
     <use xlink:href="#DejaVuSans-61" transform="translate(241.796875 0)"/>
     <use xlink:href="#DejaVuSans-74" transform="translate(303.076172 0)"/>
     <use xlink:href="#DejaVuSans-61" transform="translate(342.285156 0)"/>
     <use xlink:href="#DejaVuSans-73" transform="translate(403.564453 0)"/>
     <use xlink:href="#DejaVuSans-65" transform="translate(455.664062 0)"/>
     <use xlink:href="#DejaVuSans-74" transform="translate(517.1875 0)"/>
     <use xlink:href="#DejaVuSans-20" transform="translate(556.396484 0)"/>
     <use xlink:href="#DejaVuSans-73" transform="translate(588.183594 0)"/>
     <use xlink:href="#DejaVuSans-74" transform="translate(640.283203 0)"/>
     <use xlink:href="#DejaVuSans-72" transform="translate(679.492188 0)"/>
     <use xlink:href="#DejaVuSans-61" transform="translate(720.605469 0)"/>
     <use xlink:href="#DejaVuSans-74" transform="translate(781.884766 0)"/>
     <use xlink:href="#DejaVuSans-69" transform="translate(821.09375 0)"/>
     <use xlink:href="#DejaVuSans-66" transform="translate(848.876953 0)"/>
     <use xlink:href="#DejaVuSans-69" transform="translate(884.082031 0)"/>
     <use xlink:href="#DejaVuSans-65" transform="translate(911.865234 0)"/>
     <use xlink:href="#DejaVuSans-64" transform="translate(973.388672 0)"/>
     <use xlink:href="#DejaVuSans-20" transform="translate(1036.865234 0)"/>
     <use xlink:href="#DejaVuSans-62" transform="translate(1068.652344 0)"/>
     <use xlink:href="#DejaVuSans-79" transform="translate(1132.128906 0)"/>
     <use xlink:href="#DejaVuSans-20" transform="translate(1191.308594 0)"/>
     <use xlink:href="#DejaVuSans-73" transform="translate(1223.095703 0)"/>
     <use xlink:href="#DejaVuSans-6f" transform="translate(1275.195312 0)"/>
     <use xlink:href="#DejaVuSans-75" transform="translate(1336.376953 0)"/>
     <use xlink:href="#DejaVuSans-72" transform="translate(1399.755859 0)"/>
     <use xlink:href="#DejaVuSans-63" transform="translate(1438.619141 0)"/>
     <use xlink:href="#DejaVuSans-65" transform="translate(1493.599609 0)"/>
    </g>
    <!-- concordance with correct answer -->
    <g transform="translate(934.449494 33.51475) scale(0.14 -0.14)">
     <use xlink:href="#DejaVuSans-63"/>
     <use xlink:href="#DejaVuSans-6f" transform="translate(54.980469 0)"/>
     <use xlink:href="#DejaVuSans-6e" transform="translate(116.162109 0)"/>
     <use xlink:href="#DejaVuSans-63" transform="translate(179.541016 0)"/>
     <use xlink:href="#DejaVuSans-6f" transform="translate(234.521484 0)"/>
     <use xlink:href="#DejaVuSans-72" transform="translate(295.703125 0)"/>
     <use xlink:href="#DejaVuSans-64" transform="translate(335.066406 0)"/>
     <use xlink:href="#DejaVuSans-61" transform="translate(398.542969 0)"/>
     <use xlink:href="#DejaVuSans-6e" transform="translate(459.822266 0)"/>
     <use xlink:href="#DejaVuSans-63" transform="translate(523.201172 0)"/>
     <use xlink:href="#DejaVuSans-65" transform="translate(578.181641 0)"/>
     <use xlink:href="#DejaVuSans-20" transform="translate(639.705078 0)"/>
     <use xlink:href="#DejaVuSans-77" transform="translate(671.492188 0)"/>
     <use xlink:href="#DejaVuSans-69" transform="translate(753.279297 0)"/>
     <use xlink:href="#DejaVuSans-74" transform="translate(781.0625 0)"/>
     <use xlink:href="#DejaVuSans-68" transform="translate(820.271484 0)"/>
     <use xlink:href="#DejaVuSans-20" transform="translate(883.650391 0)"/>
     <use xlink:href="#DejaVuSans-63" transform="translate(915.4375 0)"/>
     <use xlink:href="#DejaVuSans-6f" transform="translate(970.417969 0)"/>
     <use xlink:href="#DejaVuSans-72" transform="translate(1031.599609 0)"/>
     <use xlink:href="#DejaVuSans-72" transform="translate(1070.962891 0)"/>
     <use xlink:href="#DejaVuSans-65" transform="translate(1109.826172 0)"/>
     <use xlink:href="#DejaVuSans-63" transform="translate(1171.349609 0)"/>
     <use xlink:href="#DejaVuSans-74" transform="translate(1226.330078 0)"/>
     <use xlink:href="#DejaVuSans-20" transform="translate(1265.539062 0)"/>
     <use xlink:href="#DejaVuSans-61" transform="translate(1297.326172 0)"/>
     <use xlink:href="#DejaVuSans-6e" transform="translate(1358.605469 0)"/>
     <use xlink:href="#DejaVuSans-73" transform="translate(1421.984375 0)"/>
     <use xlink:href="#DejaVuSans-77" transform="translate(1474.083984 0)"/>
     <use xlink:href="#DejaVuSans-65" transform="translate(1555.871094 0)"/>
     <use xlink:href="#DejaVuSans-72" transform="translate(1617.394531 0)"/>
    </g>
   </g>
  </g>
 </g>
</svg>
